# Blender 5.1.2
# www.blender.org
mtllib floor.mtl
o floor
v 40.103943 11.986782 60.183594
v 40.103943 11.986782 39.962143
v 59.890308 11.986782 60.183594
v 59.890308 11.986782 39.962143
v -39.997223 23.952377 60.183594
v -39.997223 23.952377 39.962143
v -60.198570 23.952377 60.183594
v -60.198570 23.952377 39.962143
v -39.997223 35.971489 -39.907013
v -60.198570 35.971489 -39.907013
v -39.997223 35.971489 -59.979004
v -60.198570 35.971489 -59.979004
v 40.011429 47.958717 -39.907013
v 40.011429 47.958717 -59.979004
v 59.999390 47.958717 -39.907013
v 59.999390 47.958717 -59.979004
v 40.011429 60.016872 40.014999
v 59.999390 60.016872 40.014999
v 40.011429 60.016872 60.198586
v 59.999390 60.016872 60.198586
v 40.103943 11.986782 60.183594
v -39.997223 23.952377 60.183594
v -39.997223 23.952377 39.962143
v 40.103943 11.986782 39.962143
v 40.103943 11.986782 39.962143
v 40.103943 -0.032310 -40.023491
v 59.890308 -0.032310 -40.023491
v 59.890308 11.986782 39.962143
v -39.997223 35.971489 -39.907013
v -39.997223 23.952377 39.962143
v -60.198570 23.952377 39.962143
v -60.198570 35.971489 -39.907013
v 40.011429 47.958717 -39.907013
v -39.997223 35.971489 -39.907013
v -39.997223 35.971489 -59.979004
v 40.011429 47.958717 -59.979004
v 40.011429 60.016872 40.014999
v 40.011429 47.958717 -39.907013
v 59.999390 47.958717 -39.907013
v 59.999390 60.016872 40.014999
v -40.014893 71.967308 40.014999
v -40.014893 71.967308 60.198586
v -60.194962 71.967308 40.014999
v -60.194962 71.967308 60.198586
v 40.052769 95.973618 -59.944366
v 40.052769 95.973618 -39.941566
v 59.981659 95.973618 -59.944366
v 59.981659 95.973618 -39.941566
v 59.981659 107.992714 39.980408
v 40.052769 107.992714 39.980408
v 59.981659 107.992714 60.192772
v 40.052769 107.992714 60.192772
v -40.048367 107.992714 39.980408
v -40.048367 107.992714 60.192772
v -60.034622 107.992714 39.980408
v -60.034622 107.992714 60.192772
v -40.014893 71.967308 40.014999
v 40.011429 60.016872 40.014999
v 40.011429 60.016872 60.198586
v -40.014893 71.967308 60.198586
v -40.014893 83.922646 -59.944366
v 40.052769 95.973618 -59.944366
v 40.052769 95.973618 -39.941566
v -40.014893 83.922646 -39.941566
v 59.981659 95.973618 -39.941566
v 59.981659 107.992714 39.980408
v 40.052769 107.992714 39.980408
v 40.052769 95.973618 -39.941566
v -39.997223 35.971489 -98.628944
v -100.774170 35.971489 -39.907013
v -100.774170 35.971489 -59.979004
v -100.774170 35.971489 -98.628944
v 74.571541 60.016872 40.014999
v 74.571541 60.016872 60.198586
v 40.011429 60.016872 74.724243
v 59.999390 60.016872 74.724243
v 86.253815 47.958717 -39.907013
v 86.253815 47.958717 -59.979004
v 40.011429 47.958717 -92.055809
v 59.999390 47.958717 -92.055809
v 86.253815 47.958717 -92.055809
v -60.123760 0.000000 -59.974335
v 59.865437 0.000000 -59.974335
v -60.123760 23.943916 59.984673
v -60.123760 -0.025745 -39.845734
v 59.865437 -0.025745 -39.845734
v -40.015720 0.000004 -59.974335
v -40.015720 23.943920 59.984673
v -40.015720 -0.025742 -39.845734
v -60.123760 83.971970 -59.974335
v -60.123760 83.946228 -39.845734
v -40.015720 83.971970 -59.974335
v 39.840836 -0.025742 -39.845734
v 39.840832 0.000004 -59.974335
v 39.840832 23.943920 59.984673
v -60.123760 -0.012871 39.975655
v -60.123760 23.931042 39.975655
v -40.015720 -0.012863 39.975655
v 39.840836 -0.012863 39.975655
v -117.273170 23.943916 59.984673
v -117.273170 23.931042 39.975655
v -40.015720 23.943920 87.238235
v -60.123760 23.943916 87.238235
v 39.840832 23.943920 87.238235
v -117.273170 23.943916 87.238235
v -85.224487 83.971970 -59.974335
v -85.224487 83.946228 -39.845734
v -60.123760 83.971970 -91.850189
v -40.015720 83.971970 -91.850189
v -85.224487 83.971970 -91.850189
v -60.194962 71.967308 40.014999
v -60.194962 83.922646 -39.941566
v -40.014893 83.922646 -39.941566
v -40.014893 71.967308 40.014999
v -40.014893 83.922646 -59.944366
v 59.865437 -0.025745 -39.845734
v -60.123760 83.971970 -59.974335
v -60.123760 83.946228 -39.845734
v 39.840836 -0.025742 -39.845734
v 59.865437 -0.012871 39.975655
v 39.840836 -0.012863 39.975655
vn -0.0000 1.0000 -0.0000
vn 0.1477 0.9890 -0.0000
vn -0.0000 0.9889 -0.1486
vn -0.0000 0.9889 0.1488
vn -0.1482 0.9890 -0.0000
vn -0.0000 0.9888 -0.1492
vn -0.1488 0.9889 -0.0000
vn -0.0000 0.9889 -0.1487
vn -0.0000 -1.0000 -0.0000
vn -0.0000 -1.0000 -0.0013
vn -0.0000 -1.0000 0.0002
vn -0.0000 1.0000 -0.0006
vn 0.0018 1.0000 0.0006
vn -0.0000 0.9890 0.1481
vt 0.625000 0.500000
vt 0.875000 0.500000
vt 0.875000 0.750000
vt 0.625000 0.750000
vt 0.625000 0.250000
vt 0.375000 0.500000
vt 0.375000 0.250000
vt 0.000000 0.000000
vt 0.750000 0.668498
vt 0.750000 1.000000
vt 1.000000 1.000000
vt 1.000000 0.668498
vt 0.000000 0.334249
vt 0.000000 0.668498
vt 0.500000 0.668498
vt 0.500000 0.334249
vt 0.000000 1.000000
vt 0.500000 1.000000
vt 0.750000 0.334249
vt 1.000000 0.334249
s 0
f 4/1/1 2/2/1 1/3/1 3/4/1
f 5/3/1 6/2/1 8/2/1 7/3/1
f 10/2/1 9/2/1 11/2/1 12/2/1
f 14/2/1 13/2/1 15/2/1 16/2/1
f 18/2/1 17/2/1 19/2/1 20/2/1
f 21/3/2 24/2/2 23/2/2 22/3/2
f 25/5/3 28/1/3 27/6/3 26/7/3
f 29/2/4 32/2/4 31/2/4 30/2/4
f 33/2/5 36/2/5 35/2/5 34/2/5
f 37/2/6 40/2/6 39/2/6 38/2/6
f 42/2/1 41/2/1 43/2/1 44/2/1
f 45/2/1 46/2/1 48/2/1 47/2/1
f 49/2/1 50/2/1 52/2/1 51/2/1
f 56/5/1 54/5/1 53/5/1 55/5/1
f 57/2/2 60/2/2 59/2/2 58/2/2
f 61/2/7 64/2/7 63/2/7 62/2/7
f 65/2/8 68/2/8 67/2/8 66/2/8
f 50/5/1 53/5/1 54/5/1 52/5/1
f 69/5/9 11/5/9 71/5/9 72/5/9
f 71/5/9 12/2/9 10/2/9 70/5/9
f 20/2/1 19/2/1 75/8/1 76/8/1
f 20/5/9 18/5/9 73/8/9 74/8/9
f 74/8/9 76/8/9 20/5/9
f 15/2/9 16/2/9 78/2/9 77/2/9
f 78/2/9 16/2/9 80/2/9 81/2/9
f 14/5/1 16/5/1 80/5/1 79/5/1
f 93/9/10 94/10/10 83/11/10 86/12/10
f 96/13/11 85/14/11 89/15/11 98/16/11
f 85/14/10 82/17/10 87/18/10 89/15/10
f 98/16/11 89/15/11 93/9/11 99/19/11
f 89/15/10 87/18/10 94/10/10 93/9/10
f 84/8/12 97/8/12 101/8/12 100/8/12
f 88/8/1 84/8/1 103/8/1 102/8/1
f 84/8/1 100/8/1 105/8/1 103/8/1
f 95/8/1 88/8/1 102/8/1 104/8/1
f 90/17/10 91/14/10 107/14/10 106/17/10
f 90/17/9 106/17/9 110/17/9 108/17/9
f 92/18/9 90/17/9 108/17/9 109/18/9
f 121/19/11 119/9/11 116/12/11 120/20/11
f 118/14/13 113/8/13 115/8/13 117/17/13
f 113/5/14 118/14/14 112/5/14 111/2/14 114/5/14
