# Blender 5.1.2
# www.blender.org
mtllib lamps.mtl
o lamps
v -112.027046 35.714256 81.823624
v -113.648438 35.714256 81.823624
v -113.648438 35.714256 83.445015
v -112.027046 35.714256 83.445015
v -112.027046 35.714256 76.103630
v -113.648438 35.714256 76.103630
v -113.648438 35.714256 77.725014
v -112.027046 35.714256 77.725014
v -112.027046 35.714256 70.383629
v -113.648438 35.714256 70.383629
v -113.648438 35.714256 72.005013
v -112.027046 35.714256 72.005013
v -112.027046 35.714256 64.663628
v -113.648438 35.714256 64.663628
v -113.648438 35.714256 66.285011
v -112.027046 35.714256 66.285011
v -106.687050 35.714256 81.823624
v -108.308441 35.714256 81.823624
v -108.308441 35.714256 83.445015
v -106.687050 35.714256 83.445015
v -106.687050 35.714256 76.103630
v -108.308441 35.714256 76.103630
v -108.308441 35.714256 77.725014
v -106.687050 35.714256 77.725014
v -106.687050 35.714256 70.383629
v -108.308441 35.714256 70.383629
v -108.308441 35.714256 72.005013
v -106.687050 35.714256 72.005013
v -106.687050 35.714256 64.663628
v -108.308434 35.714256 64.663628
v -108.308441 35.714256 66.285011
v -106.687050 35.714256 66.285011
v -101.347054 35.714256 81.823624
v -102.968437 35.714256 81.823624
v -102.968437 35.714256 83.445015
v -101.347054 35.714256 83.445015
v -101.347054 35.714256 76.103630
v -102.968437 35.714256 76.103630
v -102.968437 35.714256 77.725014
v -101.347054 35.714256 77.725014
v -101.347046 35.714256 70.383629
v -102.968437 35.714256 70.383629
v -102.968437 35.714256 72.005013
v -101.347054 35.714256 72.005013
v -101.347046 35.714256 64.663628
v -102.968437 35.714256 64.663628
v -102.968437 35.714256 66.285011
v -101.347046 35.714256 66.285011
v -96.007057 35.714260 81.823624
v -97.628441 35.714256 81.823624
v -97.628441 35.714256 83.445015
v -96.007057 35.714260 83.445015
v -96.007057 35.714260 76.103630
v -97.628441 35.714256 76.103630
v -97.628441 35.714256 77.725014
v -96.007057 35.714260 77.725014
v -96.007057 35.714260 70.383629
v -97.628441 35.714256 70.383629
v -97.628441 35.714256 72.005013
v -96.007057 35.714260 72.005013
v -96.007057 35.714260 64.663628
v -97.628441 35.714256 64.663628
v -97.628441 35.714256 66.285011
v -96.007057 35.714260 66.285011
v -90.667053 35.714260 81.823624
v -92.288445 35.714260 81.823624
v -92.288445 35.714260 83.445015
v -90.667053 35.714260 83.445015
v -90.667053 35.714260 76.103630
v -92.288445 35.714260 76.103630
v -92.288445 35.714260 77.725014
v -90.667053 35.714260 77.725014
v -90.667053 35.714260 70.383629
v -92.288445 35.714260 70.383629
v -92.288445 35.714260 72.005013
v -90.667053 35.714260 72.005013
v -90.667053 35.714260 64.663628
v -92.288445 35.714260 64.663628
v -92.288445 35.714260 66.285011
v -90.667053 35.714260 66.285019
v -85.327057 35.714260 81.823624
v -86.948433 35.714260 81.823624
v -86.948433 35.714260 83.445015
v -85.327057 35.714260 83.445015
v -85.327057 35.714260 76.103630
v -86.948433 35.714260 76.103630
v -86.948433 35.714260 77.725014
v -85.327057 35.714260 77.725021
v -85.327057 35.714260 70.383629
v -86.948433 35.714260 70.383629
v -86.948433 35.714260 72.005013
v -85.327057 35.714260 72.005013
v -85.327057 35.714260 64.663628
v -86.948433 35.714260 64.663628
v -86.948433 35.714260 66.285019
v -85.327057 35.714260 66.285019
v -79.987061 35.714264 81.823624
v -81.608437 35.714264 81.823624
v -81.608437 35.714264 83.445015
v -79.987061 35.714264 83.445015
v -79.987061 35.714264 76.103630
v -81.608437 35.714264 76.103630
v -81.608437 35.714264 77.725021
v -79.987061 35.714264 77.725021
v -79.987061 35.714264 70.383629
v -81.608437 35.714264 70.383629
v -81.608437 35.714264 72.005013
v -79.987061 35.714264 72.005020
v -79.987061 35.714264 64.663628
v -81.608437 35.714264 64.663628
v -81.608437 35.714264 66.285019
v -79.987061 35.714264 66.285019
v -74.647057 35.714264 81.823624
v -76.268440 35.714264 81.823624
v -76.268440 35.714264 83.445015
v -74.647057 35.714264 83.445015
v -74.647057 35.714264 76.103630
v -76.268440 35.714264 76.103630
v -76.268440 35.714264 77.725021
v -74.647057 35.714264 77.725021
v -74.647057 35.714264 70.383629
v -76.268440 35.714264 70.383629
v -76.268440 35.714264 72.005020
v -74.647057 35.714264 72.005020
v -74.647057 35.714264 64.663628
v -76.268440 35.714264 64.663628
v -76.268440 35.714264 66.285019
v -74.647057 35.714264 66.285019
v -69.307045 35.714264 81.823624
v -70.928444 35.714264 81.823624
v -70.928444 35.714264 83.445015
v -69.307045 35.714264 83.445015
v -69.307045 35.714264 76.103630
v -70.928444 35.714264 76.103630
v -70.928444 35.714264 77.725021
v -69.307045 35.714264 77.725021
v -69.307045 35.714264 70.383629
v -70.928444 35.714264 70.383629
v -70.928444 35.714264 72.005020
v -69.307045 35.714264 72.005020
v -69.307045 35.714264 64.663628
v -70.928444 35.714264 64.663628
v -70.928444 35.714264 66.285019
v -69.307045 35.714264 66.285019
v -63.967045 35.714264 81.823624
v -65.588448 35.714264 81.823624
v -65.588448 35.714264 83.445015
v -63.967045 35.714264 83.445015
v -63.967045 35.714264 76.103630
v -65.588448 35.714264 76.103630
v -65.588448 35.714264 77.725021
v -63.967045 35.714264 77.725021
v -63.967045 35.714264 70.383629
v -65.588448 35.714264 70.383629
v -65.588448 35.714264 72.005020
v -63.967045 35.714264 72.005020
v -63.967045 35.714264 64.663628
v -65.588448 35.714264 64.663628
v -65.588448 35.714264 66.285019
v -63.967045 35.714264 66.285019
v -58.627052 35.714264 81.823624
v -60.248444 35.714264 81.823624
v -60.248444 35.714264 83.445015
v -58.627052 35.714264 83.445015
v -58.627052 35.714264 76.103630
v -60.248444 35.714264 76.103630
v -60.248444 35.714264 77.725021
v -58.627052 35.714264 77.725021
v -58.627052 35.714264 70.383629
v -60.248444 35.714264 70.383629
v -60.248444 35.714264 72.005020
v -58.627052 35.714264 72.005020
v -58.627052 35.714264 64.663628
v -60.248444 35.714264 64.663628
v -60.248444 35.714264 66.285019
v -58.627052 35.714264 66.285019
v -53.287056 35.714264 81.823624
v -54.908443 35.714264 81.823624
v -54.908443 35.714264 83.445015
v -53.287056 35.714264 83.445015
v -53.287056 35.714264 76.103630
v -54.908443 35.714264 76.103630
v -54.908443 35.714264 77.725021
v -53.287056 35.714264 77.725021
v -53.287056 35.714264 70.383629
v -54.908443 35.714264 70.383629
v -54.908443 35.714264 72.005020
v -53.287056 35.714264 72.005020
v -53.287056 35.714264 64.663628
v -54.908443 35.714264 64.663628
v -54.908443 35.714264 66.285019
v -53.287056 35.714264 66.285019
v -47.947067 35.714264 81.823624
v -49.568447 35.714264 81.823624
v -49.568447 35.714264 83.445015
v -47.947067 35.714264 83.445015
v -47.947067 35.714264 76.103630
v -49.568447 35.714264 76.103630
v -49.568447 35.714264 77.725021
v -47.947067 35.714264 77.725021
v -47.947067 35.714264 70.383629
v -49.568447 35.714264 70.383629
v -49.568447 35.714264 72.005020
v -47.947067 35.714264 72.005020
v -47.947067 35.714264 64.663628
v -49.568447 35.714264 64.663628
v -49.568447 35.714264 66.285019
v -47.947067 35.714264 66.285019
v -42.607063 35.714264 81.823624
v -44.228443 35.714264 81.823624
v -44.228443 35.714264 83.445015
v -42.607063 35.714264 83.445015
v -42.607063 35.714264 76.103630
v -44.228443 35.714264 76.103630
v -44.228443 35.714264 77.725021
v -42.607063 35.714264 77.725021
v -42.607063 35.714264 70.383629
v -44.228443 35.714264 70.383629
v -44.228443 35.714264 72.005020
v -42.607063 35.714264 72.005020
v -42.607063 35.714264 64.663628
v -44.228443 35.714264 64.663628
v -44.228443 35.714264 66.285019
v -42.607063 35.714264 66.285019
v -37.267063 35.714264 81.823624
v -38.888447 35.714264 81.823624
v -38.888447 35.714264 83.445015
v -37.267063 35.714264 83.445015
v -37.267063 35.714264 76.103630
v -38.888447 35.714264 76.103630
v -38.888447 35.714264 77.725021
v -37.267063 35.714264 77.725021
v -37.267063 35.714264 70.383629
v -38.888447 35.714264 70.383629
v -38.888447 35.714264 72.005020
v -37.267063 35.714264 72.005020
v -37.267063 35.714264 64.663628
v -38.888447 35.714264 64.663628
v -38.888447 35.714264 66.285019
v -37.267063 35.714264 66.285019
v -31.927059 35.714268 81.823624
v -33.548443 35.714268 81.823624
v -33.548443 35.714268 83.445015
v -31.927059 35.714268 83.445015
v -31.927059 35.714268 76.103630
v -33.548443 35.714268 76.103630
v -33.548443 35.714268 77.725021
v -31.927059 35.714268 77.725021
v -31.927059 35.714268 70.383629
v -33.548443 35.714268 70.383629
v -33.548443 35.714268 72.005020
v -31.927059 35.714268 72.005020
v -31.927059 35.714268 64.663628
v -33.548443 35.714268 64.663628
v -33.548443 35.714268 66.285019
v -31.927059 35.714268 66.285019
v -26.587065 35.714268 81.823624
v -28.208447 35.714268 81.823624
v -28.208447 35.714268 83.445015
v -26.587065 35.714268 83.445015
v -26.587065 35.714268 76.103630
v -28.208447 35.714268 76.103630
v -28.208447 35.714268 77.725021
v -26.587065 35.714268 77.725021
v -26.587065 35.714268 70.383629
v -28.208447 35.714268 70.383629
v -28.208447 35.714268 72.005020
v -26.587065 35.714268 72.005020
v -26.587065 35.714268 64.663628
v -28.208447 35.714268 64.663628
v -28.208447 35.714268 66.285019
v -26.587065 35.714268 66.285019
v -21.247066 35.714272 81.823624
v -22.868450 35.714268 81.823624
v -22.868450 35.714268 83.445015
v -21.247066 35.714272 83.445015
v -21.247066 35.714272 76.103630
v -22.868450 35.714268 76.103630
v -22.868450 35.714268 77.725021
v -21.247066 35.714272 77.725021
v -21.247066 35.714272 70.383629
v -22.868450 35.714268 70.383629
v -22.868450 35.714268 72.005020
v -21.247066 35.714272 72.005020
v -21.247066 35.714272 64.663628
v -22.868450 35.714268 64.663628
v -22.868450 35.714268 66.285019
v -21.247066 35.714272 66.285019
v -15.907063 35.714272 81.823624
v -17.528446 35.714272 81.823624
v -17.528446 35.714272 83.445015
v -15.907063 35.714272 83.445015
v -15.907063 35.714272 76.103630
v -17.528446 35.714272 76.103630
v -17.528446 35.714272 77.725021
v -15.907063 35.714272 77.725021
v -15.907063 35.714272 70.383629
v -17.528446 35.714272 70.383629
v -17.528446 35.714272 72.005020
v -15.907063 35.714272 72.005020
v -15.907063 35.714272 64.663628
v -17.528446 35.714272 64.663628
v -17.528446 35.714272 66.285019
v -15.907063 35.714272 66.285019
v -10.567066 35.714272 81.823624
v -12.188449 35.714272 81.823624
v -12.188449 35.714272 83.445015
v -10.567066 35.714272 83.445015
v -10.567066 35.714272 76.103630
v -12.188449 35.714272 76.103630
v -12.188449 35.714272 77.725021
v -10.567066 35.714272 77.725021
v -10.567066 35.714272 70.383629
v -12.188449 35.714272 70.383629
v -12.188449 35.714272 72.005020
v -10.567066 35.714272 72.005020
v -10.567066 35.714272 64.663628
v -12.188449 35.714272 64.663628
v -12.188449 35.714272 66.285019
v -10.567066 35.714272 66.285019
v -5.227062 35.714272 81.823624
v -6.848445 35.714272 81.823624
v -6.848445 35.714272 83.445015
v -5.227062 35.714272 83.445015
v -5.227062 35.714272 76.103630
v -6.848445 35.714272 76.103630
v -6.848445 35.714272 77.725021
v -5.227062 35.714272 77.725021
v -5.227062 35.714272 70.383629
v -6.848445 35.714272 70.383629
v -6.848445 35.714272 72.005020
v -5.227062 35.714272 72.005020
v -5.227062 35.714272 64.663635
v -6.848445 35.714272 64.663628
v -6.848445 35.714272 66.285019
v -5.227062 35.714272 66.285019
v 0.112934 35.714272 81.823624
v -1.508448 35.714272 81.823624
v -1.508448 35.714272 83.445015
v 0.112934 35.714272 83.445015
v 0.112934 35.714272 76.103630
v -1.508448 35.714272 76.103630
v -1.508448 35.714272 77.725021
v 0.112934 35.714272 77.725021
v 0.112934 35.714272 70.383629
v -1.508448 35.714272 70.383629
v -1.508448 35.714272 72.005020
v 0.112934 35.714272 72.005020
v 0.112934 35.714272 64.663635
v -1.508448 35.714272 64.663635
v -1.508448 35.714272 66.285019
v 0.112934 35.714272 66.285019
v 5.452931 35.714272 81.823624
v 3.831548 35.714272 81.823624
v 3.831548 35.714272 83.445015
v 5.452931 35.714272 83.445015
v 5.452931 35.714272 76.103630
v 3.831548 35.714272 76.103630
v 3.831548 35.714272 77.725021
v 5.452931 35.714272 77.725021
v 5.452931 35.714272 70.383636
v 3.831548 35.714272 70.383629
v 3.831548 35.714272 72.005020
v 5.452931 35.714272 72.005020
v 5.452931 35.714272 64.663635
v 3.831548 35.714272 64.663635
v 3.831548 35.714272 66.285019
v 5.452931 35.714272 66.285019
v 10.792935 35.714275 81.823624
v 9.171545 35.714275 81.823624
v 9.171545 35.714275 83.445015
v 10.792935 35.714275 83.445015
v 10.792935 35.714275 76.103630
v 9.171545 35.714275 76.103630
v 9.171545 35.714275 77.725021
v 10.792935 35.714275 77.725021
v 10.792935 35.714275 70.383636
v 9.171545 35.714275 70.383636
v 9.171545 35.714275 72.005020
v 10.792935 35.714275 72.005020
v 10.792935 35.714275 64.663635
v 9.171545 35.714275 64.663635
v 9.171545 35.714275 66.285019
v 10.792935 35.714275 66.285019
v 16.132931 35.714275 81.823624
v 14.511534 35.714275 81.823624
v 14.511534 35.714275 83.445015
v 16.132931 35.714275 83.445015
v 16.132931 35.714275 76.103630
v 14.511534 35.714275 76.103630
v 14.511534 35.714275 77.725021
v 16.132931 35.714275 77.725021
v 16.132931 35.714275 70.383636
v 14.511534 35.714275 70.383636
v 14.511534 35.714275 72.005020
v 16.132931 35.714275 72.005020
v 16.132931 35.714275 64.663635
v 14.511534 35.714275 64.663635
v 14.511534 35.714275 66.285019
v 16.132931 35.714275 66.285019
v 21.472937 35.714275 81.823631
v 19.851545 35.714275 81.823631
v 19.851545 35.714275 83.445015
v 21.472937 35.714275 83.445015
v 21.472937 35.714275 76.103638
v 19.851545 35.714275 76.103630
v 19.851545 35.714275 77.725021
v 21.472937 35.714275 77.725021
v 21.472937 35.714275 70.383636
v 19.851545 35.714275 70.383636
v 19.851545 35.714275 72.005020
v 21.472937 35.714275 72.005020
v 21.472937 35.714275 64.663635
v 19.851545 35.714275 64.663635
v 19.851545 35.714275 66.285019
v 21.472937 35.714275 66.285019
v 26.812941 35.714279 81.823631
v 25.191536 35.714279 81.823631
v 25.191536 35.714279 83.445015
v 26.812941 35.714279 83.445015
v 26.812941 35.714279 76.103638
v 25.191536 35.714279 76.103638
v 25.191536 35.714279 77.725021
v 26.812941 35.714279 77.725021
v 26.812941 35.714279 70.383636
v 25.191536 35.714279 70.383636
v 25.191536 35.714279 72.005020
v 26.812941 35.714279 72.005020
v 26.812941 35.714279 64.663635
v 25.191536 35.714279 64.663635
v 25.191536 35.714279 66.285019
v 26.812941 35.714279 66.285019
v 32.152927 35.714279 81.823631
v 30.531540 35.714279 81.823631
v 30.531540 35.714279 83.445015
v 32.152927 35.714279 83.445015
v 32.152927 35.714279 76.103638
v 30.531540 35.714279 76.103638
v 30.531540 35.714279 77.725021
v 32.152927 35.714279 77.725021
v 32.152927 35.714279 70.383636
v 30.531540 35.714279 70.383636
v 30.531540 35.714279 72.005020
v 32.152927 35.714279 72.005020
v 32.152927 35.714279 64.663635
v 30.531540 35.714279 64.663635
v 30.531540 35.714279 66.285019
v 32.152927 35.714279 66.285019
v 37.492935 35.714279 81.823631
v 35.871529 35.714279 81.823631
v 35.871529 35.714279 83.445015
v 37.492935 35.714279 83.445015
v 37.492935 35.714279 76.103638
v 35.871529 35.714279 76.103638
v 35.871529 35.714279 77.725021
v 37.492935 35.714279 77.725021
v 37.492935 35.714279 70.383636
v 35.871529 35.714279 70.383636
v 35.871529 35.714279 72.005020
v 37.492935 35.714279 72.005020
v 37.492935 35.714279 64.663635
v 35.871529 35.714279 64.663635
v 35.871529 35.714279 66.285019
v 37.492935 35.714279 66.285019
v 51.186535 71.817917 -67.865776
v 49.565144 71.817917 -67.865776
v 49.565144 71.817917 -66.244392
v 51.186535 71.817917 -66.244392
v 51.186535 71.817917 -73.585777
v 49.565144 71.817917 -73.585777
v 49.565144 71.817917 -71.964386
v 51.186535 71.817917 -71.964386
v 51.186535 71.817917 -79.305771
v 49.565144 71.817917 -79.305771
v 49.565144 71.817917 -77.684387
v 51.186535 71.817917 -77.684387
v 51.186535 71.817917 -85.025772
v 49.565147 71.817917 -85.025772
v 49.565144 71.817917 -83.404388
v 51.186535 71.817917 -83.404388
v 56.526531 71.817917 -67.865776
v 54.905144 71.817917 -67.865776
v 54.905144 71.817917 -66.244392
v 56.526531 71.817917 -66.244392
v 56.526531 71.817917 -73.585777
v 54.905144 71.817917 -73.585777
v 54.905144 71.817917 -71.964386
v 56.526531 71.817917 -71.964386
v 56.526531 71.817917 -79.305771
v 54.905144 71.817917 -79.305771
v 54.905144 71.817917 -77.684387
v 56.526531 71.817917 -77.684387
v 56.526531 71.817917 -85.025772
v 54.905144 71.817917 -85.025772
v 54.905144 71.817917 -83.404388
v 56.526531 71.817917 -83.404388
v 61.866531 71.817917 -67.865776
v 60.245144 71.817917 -67.865776
v 60.245144 71.817917 -66.244392
v 61.866531 71.817917 -66.244392
v 61.866531 71.817917 -73.585777
v 60.245144 71.817917 -73.585777
v 60.245144 71.817917 -71.964386
v 61.866531 71.817917 -71.964386
v 61.866531 71.817917 -79.305771
v 60.245144 71.817917 -79.305771
v 60.245144 71.817917 -77.684387
v 61.866531 71.817917 -77.684387
v 61.866531 71.817917 -85.025772
v 60.245144 71.817917 -85.025772
v 60.245144 71.817917 -83.404388
v 61.866531 71.817917 -83.404388
v 67.206520 71.817917 -67.865776
v 65.585136 71.817917 -67.865776
v 65.585136 71.817917 -66.244392
v 67.206520 71.817917 -66.244392
v 67.206520 71.817917 -73.585777
v 65.585136 71.817917 -73.585777
v 65.585136 71.817917 -71.964386
v 67.206520 71.817917 -71.964386
v 67.206520 71.817917 -79.305771
v 65.585136 71.817917 -79.305771
v 65.585136 71.817917 -77.684387
v 67.206520 71.817917 -77.684387
v 67.206520 71.817917 -85.025772
v 65.585136 71.817917 -85.025772
v 65.585136 71.817917 -83.404388
v 67.206520 71.817917 -83.404388
v 72.546524 71.817924 -67.865776
v 70.925133 71.817924 -67.865776
v 70.925133 71.817924 -66.244392
v 72.546524 71.817924 -66.244392
v 72.546524 71.817924 -73.585777
v 70.925133 71.817924 -73.585777
v 70.925133 71.817924 -71.964386
v 72.546524 71.817924 -71.964386
v 72.546524 71.817924 -79.305771
v 70.925133 71.817924 -79.305771
v 70.925133 71.817924 -77.684387
v 72.546524 71.817924 -77.684387
v 72.546524 71.817924 -85.025772
v 70.925133 71.817924 -85.025772
v 70.925133 71.817924 -83.404388
v 72.546524 71.817924 -83.404388
v 77.886520 71.817924 -67.865776
v 76.265137 71.817924 -67.865776
v 76.265137 71.817924 -66.244392
v 77.886520 71.817924 -66.244392
v 77.886520 71.817924 -73.585777
v 76.265137 71.817924 -73.585777
v 76.265137 71.817924 -71.964386
v 77.886520 71.817924 -71.964378
v 77.886520 71.817924 -79.305771
v 76.265137 71.817924 -79.305771
v 76.265137 71.817924 -77.684387
v 77.886520 71.817924 -77.684387
v 77.886520 71.817924 -85.025772
v 76.265137 71.817924 -85.025772
v 76.265137 71.817924 -83.404388
v 77.886520 71.817924 -83.404388
v -87.547783 59.875381 -62.288811
v -89.169174 59.875381 -62.288811
v -89.169174 59.875381 -60.667427
v -87.547783 59.875381 -60.667427
v -87.547783 59.875381 -68.008812
v -89.169174 59.875381 -68.008812
v -89.169174 59.875381 -66.387428
v -87.547783 59.875381 -66.387428
v -87.547783 59.875381 -73.728813
v -89.169174 59.875381 -73.728813
v -89.169174 59.875381 -72.107422
v -87.547783 59.875381 -72.107422
v -87.547783 59.875381 -79.448807
v -89.169174 59.875381 -79.448807
v -89.169174 59.875381 -77.827423
v -87.547783 59.875381 -77.827423
v -87.547783 59.875381 -85.168808
v -89.169174 59.875381 -85.168808
v -89.169174 59.875381 -83.547424
v -87.547783 59.875381 -83.547424
v -87.547783 59.875381 -90.888809
v -89.169174 59.875381 -90.888809
v -89.169174 59.875381 -89.267418
v -87.547783 59.875381 -89.267418
v -82.207787 59.875381 -62.288811
v -83.829178 59.875381 -62.288811
v -83.829178 59.875381 -60.667427
v -82.207787 59.875381 -60.667427
v -82.207787 59.875381 -68.008812
v -83.829178 59.875381 -68.008812
v -83.829178 59.875381 -66.387428
v -82.207787 59.875381 -66.387428
v -82.207787 59.875381 -73.728813
v -83.829178 59.875381 -73.728813
v -83.829178 59.875381 -72.107422
v -82.207787 59.875381 -72.107422
v -82.207787 59.875381 -79.448807
v -83.829170 59.875381 -79.448807
v -83.829178 59.875381 -77.827423
v -82.207787 59.875381 -77.827423
v -82.207787 59.875381 -85.168808
v -83.829170 59.875381 -85.168808
v -83.829170 59.875381 -83.547424
v -82.207787 59.875381 -83.547424
v -82.207787 59.875381 -90.888809
v -83.829170 59.875381 -90.888809
v -83.829170 59.875381 -89.267418
v -82.207787 59.875381 -89.267418
v -76.867790 59.875381 -62.288811
v -78.489174 59.875381 -62.288811
v -78.489174 59.875381 -60.667427
v -76.867790 59.875381 -60.667427
v -76.867790 59.875381 -68.008812
v -78.489174 59.875381 -68.008812
v -78.489174 59.875381 -66.387428
v -76.867790 59.875381 -66.387428
v -76.867783 59.875381 -73.728813
v -78.489174 59.875381 -73.728813
v -78.489174 59.875381 -72.107422
v -76.867790 59.875381 -72.107422
v -76.867783 59.875381 -79.448807
v -78.489174 59.875381 -79.448807
v -78.489174 59.875381 -77.827423
v -76.867783 59.875381 -77.827423
v -76.867783 59.875381 -85.168808
v -78.489174 59.875381 -85.168808
v -78.489174 59.875381 -83.547424
v -76.867783 59.875381 -83.547424
v -76.867783 59.875381 -90.888809
v -78.489174 59.875381 -90.888809
v -78.489174 59.875381 -89.267418
v -76.867783 59.875381 -89.267418
v -71.527794 59.875381 -62.288811
v -73.149178 59.875381 -62.288811
v -73.149178 59.875381 -60.667427
v -71.527794 59.875381 -60.667427
v -71.527794 59.875381 -68.008812
v -73.149178 59.875381 -68.008812
v -73.149178 59.875381 -66.387428
v -71.527794 59.875381 -66.387428
v -71.527794 59.875381 -73.728813
v -73.149178 59.875381 -73.728813
v -73.149178 59.875381 -72.107422
v -71.527794 59.875381 -72.107422
v -71.527794 59.875381 -79.448807
v -73.149178 59.875381 -79.448807
v -73.149178 59.875381 -77.827423
v -71.527794 59.875381 -77.827423
v -71.527786 59.875381 -85.168808
v -73.149178 59.875381 -85.168808
v -73.149178 59.875381 -83.547424
v -71.527786 59.875381 -83.547424
v -71.527786 59.875381 -90.888809
v -73.149178 59.875381 -90.888809
v -73.149178 59.875381 -89.267418
v -71.527786 59.875381 -89.267418
v -66.187790 59.875385 -62.288811
v -67.809181 59.875385 -62.288811
v -67.809181 59.875385 -60.667427
v -66.187790 59.875385 -60.667427
v -66.187790 59.875385 -68.008812
v -67.809181 59.875385 -68.008812
v -67.809181 59.875385 -66.387428
v -66.187790 59.875385 -66.387428
v -66.187790 59.875385 -73.728813
v -67.809181 59.875385 -73.728813
v -67.809181 59.875385 -72.107422
v -66.187790 59.875385 -72.107422
v -66.187790 59.875385 -79.448807
v -67.809181 59.875385 -79.448807
v -67.809181 59.875385 -77.827423
v -66.187790 59.875385 -77.827423
v -66.187790 59.875385 -85.168808
v -67.809181 59.875385 -85.168808
v -67.809181 59.875385 -83.547424
v -66.187790 59.875385 -83.547417
v -66.187790 59.875385 -90.888809
v -67.809181 59.875385 -90.888809
v -67.809181 59.875385 -89.267418
v -66.187790 59.875385 -89.267418
v -60.847790 59.875385 -62.288811
v -62.469173 59.875385 -62.288811
v -62.469173 59.875385 -60.667427
v -60.847790 59.875385 -60.667427
v -60.847790 59.875385 -68.008812
v -62.469173 59.875385 -68.008812
v -62.469173 59.875385 -66.387428
v -60.847790 59.875385 -66.387421
v -60.847790 59.875385 -73.728813
v -62.469173 59.875385 -73.728813
v -62.469173 59.875385 -72.107422
v -60.847790 59.875385 -72.107422
v -60.847790 59.875385 -79.448807
v -62.469173 59.875385 -79.448807
v -62.469173 59.875385 -77.827423
v -60.847790 59.875385 -77.827423
v -60.847786 59.875385 -85.168808
v -62.469173 59.875385 -85.168808
v -62.469173 59.875385 -83.547417
v -60.847786 59.875385 -83.547417
v -60.847786 59.875385 -90.888809
v -62.469173 59.875385 -90.888809
v -62.469173 59.875385 -89.267418
v -60.847786 59.875385 -89.267418
v -79.815880 95.727776 -46.964249
v -81.437263 95.727776 -46.964249
v -81.437263 95.727776 -45.342857
v -79.815880 95.727776 -45.342857
v -79.815880 95.727776 -52.684250
v -81.437263 95.727776 -52.684250
v -81.437263 95.727776 -51.062859
v -79.815880 95.727776 -51.062859
v -79.815880 95.727776 -58.404251
v -81.437263 95.727776 -58.404251
v -81.437263 95.727776 -56.782860
v -79.815880 95.727776 -56.782860
v -79.815880 95.727776 -64.124245
v -81.437263 95.727776 -64.124245
v -81.437263 95.727776 -62.502861
v -79.815880 95.727776 -62.502861
v -79.815880 95.727776 -69.844246
v -81.437263 95.727776 -69.844246
v -81.437263 95.727776 -68.222862
v -79.815880 95.727776 -68.222862
v -79.815880 95.727776 -75.564247
v -81.437263 95.727776 -75.564247
v -81.437263 95.727776 -73.942863
v -79.815880 95.727776 -73.942863
v -79.815880 95.727776 -81.284248
v -81.437263 95.727776 -81.284248
v -81.437263 95.727776 -79.662865
v -79.815880 95.727776 -79.662865
v -79.815880 95.727776 -87.004250
v -81.437263 95.727776 -87.004250
v -81.437263 95.727776 -85.382866
v -79.815880 95.727776 -85.382866
v -74.475883 95.727776 -46.964249
v -76.097267 95.727776 -46.964249
v -76.097267 95.727776 -45.342857
v -74.475883 95.727776 -45.342857
v -74.475883 95.727776 -52.684250
v -76.097267 95.727776 -52.684250
v -76.097267 95.727776 -51.062859
v -74.475883 95.727776 -51.062859
v -74.475883 95.727776 -58.404251
v -76.097267 95.727776 -58.404251
v -76.097267 95.727776 -56.782860
v -74.475883 95.727776 -56.782860
v -74.475883 95.727776 -64.124245
v -76.097260 95.727776 -64.124245
v -76.097267 95.727776 -62.502861
v -74.475883 95.727776 -62.502861
v -74.475883 95.727776 -69.844246
v -76.097260 95.727776 -69.844246
v -76.097260 95.727776 -68.222862
v -74.475883 95.727776 -68.222862
v -74.475883 95.727776 -75.564247
v -76.097260 95.727776 -75.564247
v -76.097260 95.727776 -73.942863
v -74.475883 95.727776 -73.942863
v -74.475883 95.727776 -81.284248
v -76.097260 95.727776 -81.284248
v -76.097260 95.727776 -79.662865
v -74.475883 95.727776 -79.662865
v -74.475883 95.727776 -87.004250
v -76.097260 95.727776 -87.004250
v -76.097260 95.727776 -85.382866
v -74.475883 95.727776 -85.382866
v -69.135880 95.727783 -46.964249
v -70.757263 95.727783 -46.964249
v -70.757263 95.727783 -45.342857
v -69.135880 95.727783 -45.342857
v -69.135880 95.727783 -52.684250
v -70.757263 95.727783 -52.684250
v -70.757263 95.727783 -51.062859
v -69.135880 95.727783 -51.062859
v -69.135872 95.727783 -58.404243
v -70.757263 95.727783 -58.404251
v -70.757263 95.727783 -56.782860
v -69.135880 95.727783 -56.782860
v -69.135872 95.727783 -64.124245
v -70.757263 95.727783 -64.124245
v -70.757263 95.727783 -62.502861
v -69.135872 95.727783 -62.502861
v -69.135872 95.727783 -69.844246
v -70.757263 95.727783 -69.844246
v -70.757263 95.727783 -68.222862
v -69.135872 95.727783 -68.222862
v -69.135872 95.727783 -75.564247
v -70.757263 95.727783 -75.564247
v -70.757263 95.727783 -73.942863
v -69.135872 95.727783 -73.942863
v -69.135872 95.727783 -81.284248
v -70.757263 95.727783 -81.284248
v -70.757263 95.727783 -79.662865
v -69.135872 95.727783 -79.662865
v -69.135872 95.727783 -87.004250
v -70.757263 95.727783 -87.004250
v -70.757263 95.727783 -85.382866
v -69.135872 95.727783 -85.382866
v -63.795879 95.727783 -46.964249
v -65.417267 95.727783 -46.964249
v -65.417267 95.727783 -45.342857
v -63.795879 95.727783 -45.342857
v -63.795879 95.727783 -52.684250
v -65.417267 95.727783 -52.684250
v -65.417267 95.727783 -51.062859
v -63.795879 95.727783 -51.062859
v -63.795879 95.727783 -58.404243
v -65.417267 95.727783 -58.404243
v -65.417267 95.727783 -56.782860
v -63.795879 95.727783 -56.782860
v -63.795879 95.727783 -64.124245
v -65.417267 95.727783 -64.124245
v -65.417267 95.727783 -62.502861
v -63.795879 95.727783 -62.502861
v -63.795872 95.727783 -69.844246
v -65.417267 95.727783 -69.844246
v -65.417267 95.727783 -68.222862
v -63.795872 95.727783 -68.222862
v -63.795872 95.727783 -75.564247
v -65.417267 95.727783 -75.564247
v -65.417267 95.727783 -73.942863
v -63.795872 95.727783 -73.942863
v -63.795872 95.727783 -81.284248
v -65.417267 95.727783 -81.284248
v -65.417267 95.727783 -79.662865
v -63.795872 95.727783 -79.662865
v -63.795872 95.727783 -87.004250
v -65.417267 95.727783 -87.004250
v -65.417267 95.727783 -85.382866
v -63.795872 95.727783 -85.382866
v -59.013725 95.727776 -64.162758
v -60.635113 95.727776 -64.162758
v -60.635113 95.727776 -62.541374
v -59.013725 95.727776 -62.541374
v -59.013725 95.727776 -69.882759
v -60.635113 95.727776 -69.882759
v -60.635113 95.727776 -68.261375
v -59.013725 95.727776 -68.261375
v -59.013725 95.727776 -75.602760
v -60.635113 95.727776 -75.602760
v -60.635113 95.727776 -73.981377
v -59.013725 95.727776 -73.981377
v -59.013725 95.727776 -81.322762
v -60.635109 95.727776 -81.322762
v -60.635109 95.727776 -79.701378
v -59.013725 95.727776 -79.701378
v -59.013725 95.727776 -87.042763
v -60.635109 95.727776 -87.042763
v -60.635109 95.727776 -85.421379
v -59.013725 95.727776 -85.421379
v -53.673729 95.727776 -64.162758
v -55.295113 95.727776 -64.162758
v -55.295113 95.727776 -62.541374
v -53.673729 95.727776 -62.541374
v -53.673729 95.727776 -69.882759
v -55.295113 95.727776 -69.882759
v -55.295113 95.727776 -68.261375
v -53.673729 95.727776 -68.261375
v -53.673729 95.727776 -75.602760
v -55.295113 95.727776 -75.602760
v -55.295113 95.727776 -73.981377
v -53.673729 95.727776 -73.981377
v -53.673725 95.727776 -81.322762
v -55.295113 95.727776 -81.322762
v -55.295113 95.727776 -79.701378
v -53.673729 95.727776 -79.701378
v -53.673725 95.727776 -87.042763
v -55.295113 95.727776 -87.042763
v -55.295113 95.727776 -85.421379
v -53.673725 95.727776 -85.421379
v -48.333725 95.727783 -64.162758
v -49.955116 95.727783 -64.162758
v -49.955116 95.727783 -62.541374
v -48.333725 95.727783 -62.541374
v -48.333725 95.727783 -69.882759
v -49.955116 95.727783 -69.882759
v -49.955116 95.727783 -68.261375
v -48.333725 95.727783 -68.261375
v -48.333725 95.727783 -75.602760
v -49.955112 95.727783 -75.602760
v -49.955116 95.727783 -73.981377
v -48.333725 95.727783 -73.981377
v -48.333725 95.727783 -81.322762
v -49.955112 95.727783 -81.322762
v -49.955112 95.727783 -79.701378
v -48.333725 95.727783 -79.701378
v -48.333725 95.727783 -87.042763
v -49.955112 95.727783 -87.042763
v -49.955112 95.727783 -85.421379
v -48.333725 95.727783 -85.421379
v -42.993729 95.727783 -64.162758
v -44.615116 95.727783 -64.162758
v -44.615116 95.727783 -62.541374
v -42.993729 95.727783 -62.541374
v -42.993729 95.727783 -69.882759
v -44.615116 95.727783 -69.882759
v -44.615116 95.727783 -68.261375
v -42.993729 95.727783 -68.261375
v -42.993729 95.727783 -75.602760
v -44.615116 95.727783 -75.602760
v -44.615116 95.727783 -73.981377
v -42.993729 95.727783 -73.981377
v -42.993729 95.727783 -81.322762
v -44.615116 95.727783 -81.322762
v -44.615116 95.727783 -79.701378
v -42.993729 95.727783 -79.701378
v -42.993729 95.727783 -87.042763
v -44.615116 95.727783 -87.042763
v -44.615116 95.727783 -85.421379
v -42.993729 95.727783 -85.421379
v -45.599346 59.815323 37.791756
v -45.599346 59.815323 39.413147
v -43.977955 59.815323 39.413147
v -43.977955 59.815323 37.791756
v -51.319344 59.815323 37.791756
v -51.319344 59.815323 39.413147
v -49.697956 59.815323 39.413147
v -49.697956 59.815323 37.791756
v -57.039341 59.815323 37.791756
v -57.039341 59.815323 39.413147
v -55.417953 59.815323 39.413147
v -55.417953 59.815323 37.791756
v -45.599346 59.815323 32.451756
v -45.599346 59.815323 34.073143
v -43.977955 59.815323 34.073143
v -43.977955 59.815323 32.451756
v -51.319344 59.815323 32.451756
v -51.319344 59.815323 34.073143
v -49.697956 59.815323 34.073143
v -49.697956 59.815323 32.451756
v -57.039341 59.815323 32.451756
v -57.039341 59.815323 34.073143
v -55.417953 59.815323 34.073143
v -55.417953 59.815323 32.451756
v -45.599346 59.815323 27.111757
v -45.599346 59.815323 28.733145
v -43.977955 59.815323 28.733145
v -43.977955 59.815323 27.111757
v -51.319344 59.815323 27.111757
v -51.319344 59.815323 28.733145
v -49.697956 59.815323 28.733145
v -49.697956 59.815323 27.111757
v -57.039341 59.815323 27.111757
v -57.039341 59.815323 28.733145
v -55.417953 59.815323 28.733145
v -55.417953 59.815323 27.111757
v -45.599346 59.815323 21.771757
v -45.599346 59.815323 23.393147
v -43.977955 59.815323 23.393147
v -43.977955 59.815323 21.771757
v -51.319344 59.815323 21.771757
v -51.319344 59.815323 23.393147
v -49.697956 59.815323 23.393147
v -49.697956 59.815323 21.771757
v -57.039341 59.815323 21.771757
v -57.039341 59.815323 23.393147
v -55.417953 59.815323 23.393147
v -55.417953 59.815323 21.771757
v -45.599346 59.815327 16.431759
v -45.599346 59.815327 18.053146
v -43.977955 59.815327 18.053146
v -43.977955 59.815327 16.431759
v -51.319344 59.815327 16.431759
v -51.319344 59.815327 18.053146
v -49.697956 59.815327 18.053146
v -49.697956 59.815327 16.431759
v -57.039341 59.815327 16.431759
v -57.039341 59.815327 18.053146
v -55.417953 59.815327 18.053146
v -55.417953 59.815327 16.431759
v -45.599346 59.815327 11.091759
v -45.599346 59.815327 12.713144
v -43.977955 59.815327 12.713144
v -43.977955 59.815327 11.091759
v -51.319344 59.815327 11.091759
v -51.319344 59.815327 12.713144
v -49.697956 59.815327 12.713144
v -49.697956 59.815327 11.091759
v -57.039341 59.815327 11.091759
v -57.039341 59.815327 12.713144
v -55.417953 59.815327 12.713144
v -55.417953 59.815327 11.091759
v -45.599346 59.815327 5.751758
v -45.599346 59.815327 7.373148
v -43.977955 59.815327 7.373148
v -43.977955 59.815327 5.751758
v -51.319344 59.815327 5.751758
v -51.319344 59.815327 7.373148
v -49.697956 59.815327 7.373148
v -49.697956 59.815327 5.751758
v -57.039341 59.815327 5.751758
v -57.039341 59.815327 7.373148
v -55.417953 59.815327 7.373148
v -55.417953 59.815327 5.751758
v -45.599346 59.815327 0.411758
v -45.599346 59.815327 2.033150
v -43.977955 59.815327 2.033150
v -43.977955 59.815327 0.411758
v -51.319344 59.815327 0.411758
v -51.319344 59.815327 2.033150
v -49.697956 59.815327 2.033150
v -49.697956 59.815327 0.411758
v -57.039341 59.815327 0.411758
v -57.039341 59.815327 2.033150
v -55.417953 59.815327 2.033150
v -55.417953 59.815327 0.411758
v -45.599346 59.815327 -4.928242
v -45.599346 59.815327 -3.306850
v -43.977955 59.815327 -3.306850
v -43.977955 59.815327 -4.928242
v -51.319344 59.815327 -4.928242
v -51.319344 59.815327 -3.306850
v -49.697956 59.815327 -3.306850
v -49.697956 59.815327 -4.928242
v -57.039341 59.815327 -4.928242
v -57.039341 59.815327 -3.306850
v -55.417953 59.815327 -3.306850
v -55.417953 59.815327 -4.928242
v -45.599346 59.815331 -10.268241
v -45.599346 59.815331 -8.646850
v -43.977955 59.815331 -8.646850
v -43.977955 59.815331 -10.268241
v -51.319344 59.815331 -10.268241
v -51.319344 59.815331 -8.646850
v -49.697956 59.815331 -8.646850
v -49.697956 59.815331 -10.268241
v -57.039341 59.815331 -10.268241
v -57.039341 59.815331 -8.646850
v -55.417953 59.815331 -8.646850
v -55.417953 59.815331 -10.268241
v -45.599346 59.815331 -15.608240
v -45.599346 59.815331 -13.986853
v -43.977955 59.815331 -13.986853
v -43.977955 59.815331 -15.608240
v -51.319344 59.815331 -15.608240
v -51.319344 59.815331 -13.986853
v -49.697956 59.815331 -13.986853
v -49.697956 59.815331 -15.608240
v -57.039341 59.815331 -15.608240
v -57.039341 59.815331 -13.986853
v -55.417953 59.815331 -13.986853
v -55.417953 59.815331 -15.608240
v -45.599346 59.815331 -20.948240
v -45.599346 59.815331 -19.326849
v -43.977955 59.815331 -19.326849
v -43.977955 59.815331 -20.948240
v -51.319344 59.815331 -20.948240
v -51.319344 59.815331 -19.326849
v -49.697956 59.815331 -19.326849
v -49.697956 59.815331 -20.948240
v -57.039341 59.815331 -20.948240
v -57.039341 59.815331 -19.326849
v -55.417953 59.815331 -19.326849
v -55.417953 59.815331 -20.948240
v -45.599346 59.815331 -26.288233
v -45.599346 59.815331 -24.666842
v -43.977955 59.815331 -24.666842
v -43.977955 59.815331 -26.288233
v -51.319344 59.815331 -26.288233
v -51.319344 59.815331 -24.666842
v -49.697956 59.815331 -24.666842
v -49.697956 59.815331 -26.288233
v -57.039341 59.815331 -26.288233
v -57.039341 59.815331 -24.666842
v -55.417953 59.815331 -24.666842
v -55.417953 59.815331 -26.288233
v -45.599346 59.815331 -31.628237
v -45.599346 59.815331 -30.006853
v -43.977955 59.815331 -30.006853
v -43.977955 59.815331 -31.628237
v -51.319344 59.815331 -31.628237
v -51.319344 59.815331 -30.006853
v -49.697956 59.815331 -30.006853
v -49.697956 59.815331 -31.628237
v -57.039341 59.815331 -31.628237
v -57.039341 59.815331 -30.006853
v -55.417953 59.815331 -30.006853
v -55.417953 59.815331 -31.628237
v -45.599346 59.815334 -36.968231
v -45.599346 59.815334 -35.346848
v -43.977955 59.815334 -35.346848
v -43.977955 59.815334 -36.968231
v -51.319344 59.815334 -36.968231
v -51.319344 59.815334 -35.346848
v -49.697956 59.815334 -35.346848
v -49.697956 59.815334 -36.968231
v -57.039341 59.815334 -36.968231
v -57.039341 59.815334 -35.346848
v -55.417953 59.815334 -35.346848
v -55.417953 59.815334 -36.968231
v -45.599346 59.815334 -42.308235
v -45.599346 59.815334 -40.686852
v -43.977955 59.815334 -40.686852
v -43.977955 59.815334 -42.308235
v -51.319344 59.815334 -42.308235
v -51.319344 59.815334 -40.686852
v -49.697956 59.815334 -40.686852
v -49.697956 59.815334 -42.308235
v -57.039341 59.815334 -42.308235
v -57.039341 59.815334 -40.686852
v -55.417953 59.815334 -40.686852
v -55.417953 59.815334 -42.308235
v -45.599346 59.815334 -47.648232
v -45.599346 59.815334 -46.026848
v -43.977955 59.815334 -46.026848
v -43.977955 59.815334 -47.648232
v -51.319344 59.815334 -47.648232
v -51.319344 59.815334 -46.026848
v -49.697956 59.815334 -46.026848
v -49.697956 59.815334 -47.648232
v -57.039341 59.815334 -47.648232
v -57.039341 59.815334 -46.026848
v -55.417953 59.815334 -46.026848
v -55.417953 59.815334 -47.648232
v -45.599346 59.815334 -52.988228
v -45.599346 59.815334 -51.366844
v -43.977955 59.815334 -51.366844
v -43.977955 59.815334 -52.988228
v -51.319344 59.815334 -52.988228
v -51.319344 59.815334 -51.366844
v -49.697956 59.815334 -51.366844
v -49.697956 59.815334 -52.988228
v -57.039341 59.815334 -52.988228
v -57.039341 59.815334 -51.366844
v -55.417953 59.815334 -51.366844
v -55.417953 59.815334 -52.988228
v -45.599346 59.815338 -58.328239
v -45.599346 59.815338 -56.706848
v -43.977955 59.815338 -56.706848
v -43.977955 59.815338 -58.328239
v -51.319344 59.815338 -58.328239
v -51.319344 59.815338 -56.706848
v -49.697956 59.815338 -56.706848
v -49.697956 59.815338 -58.328239
v -57.039341 59.815338 -58.328239
v -57.039341 59.815338 -56.706848
v -55.417953 59.815338 -56.706848
v -55.417953 59.815338 -58.328239
v -45.599346 11.825939 37.791756
v -45.599346 11.825939 39.413147
v -43.977955 11.825939 39.413147
v -43.977955 11.825939 37.791756
v -51.319344 11.825939 37.791756
v -51.319344 11.825939 39.413147
v -49.697956 11.825939 39.413147
v -49.697956 11.825939 37.791756
v -57.039341 11.825939 37.791756
v -57.039341 11.825939 39.413147
v -55.417953 11.825939 39.413147
v -55.417953 11.825939 37.791756
v -45.599346 11.825939 32.451756
v -45.599346 11.825939 34.073143
v -43.977955 11.825939 34.073143
v -43.977955 11.825939 32.451756
v -51.319344 11.825939 32.451756
v -51.319344 11.825939 34.073143
v -49.697956 11.825939 34.073143
v -49.697956 11.825939 32.451756
v -57.039341 11.825939 32.451756
v -57.039341 11.825939 34.073143
v -55.417953 11.825939 34.073143
v -55.417953 11.825939 32.451756
v -45.599346 11.825943 27.111757
v -45.599346 11.825943 28.733145
v -43.977955 11.825943 28.733145
v -43.977955 11.825943 27.111757
v -51.319344 11.825943 27.111757
v -51.319344 11.825943 28.733145
v -49.697956 11.825943 28.733145
v -49.697956 11.825943 27.111757
v -57.039341 11.825943 27.111757
v -57.039341 11.825943 28.733145
v -55.417953 11.825943 28.733145
v -55.417953 11.825943 27.111757
v -45.599346 11.825943 21.771757
v -45.599346 11.825943 23.393147
v -43.977955 11.825943 23.393147
v -43.977955 11.825943 21.771757
v -51.319344 11.825943 21.771757
v -51.319344 11.825943 23.393147
v -49.697956 11.825943 23.393147
v -49.697956 11.825943 21.771757
v -57.039341 11.825943 21.771757
v -57.039341 11.825943 23.393147
v -55.417953 11.825943 23.393147
v -55.417953 11.825943 21.771757
v -45.599346 11.825943 16.431759
v -45.599346 11.825943 18.053146
v -43.977955 11.825943 18.053146
v -43.977955 11.825943 16.431759
v -51.319344 11.825943 16.431759
v -51.319344 11.825943 18.053146
v -49.697956 11.825943 18.053146
v -49.697956 11.825943 16.431759
v -57.039341 11.825943 16.431759
v -57.039341 11.825943 18.053146
v -55.417953 11.825943 18.053146
v -55.417953 11.825943 16.431759
v -45.599346 11.825943 11.091759
v -45.599346 11.825943 12.713144
v -43.977955 11.825943 12.713144
v -43.977955 11.825943 11.091759
v -51.319344 11.825943 11.091759
v -51.319344 11.825943 12.713144
v -49.697956 11.825943 12.713144
v -49.697956 11.825943 11.091759
v -57.039341 11.825943 11.091759
v -57.039341 11.825943 12.713144
v -55.417953 11.825943 12.713144
v -55.417953 11.825943 11.091759
v -45.599346 11.825943 5.751758
v -45.599346 11.825943 7.373148
v -43.977955 11.825943 7.373148
v -43.977955 11.825943 5.751758
v -51.319344 11.825943 5.751758
v -51.319344 11.825943 7.373148
v -49.697956 11.825943 7.373148
v -49.697956 11.825943 5.751758
v -57.039341 11.825943 5.751758
v -57.039341 11.825943 7.373148
v -55.417953 11.825943 7.373148
v -55.417953 11.825943 5.751758
v -45.599346 11.825947 0.411758
v -45.599346 11.825943 2.033150
v -43.977955 11.825943 2.033150
v -43.977955 11.825947 0.411758
v -51.319344 11.825947 0.411758
v -51.319344 11.825943 2.033150
v -49.697956 11.825943 2.033150
v -49.697956 11.825947 0.411758
v -57.039341 11.825947 0.411758
v -57.039341 11.825943 2.033150
v -55.417953 11.825943 2.033150
v -55.417953 11.825947 0.411758
v -45.599346 11.825947 -4.928242
v -45.599346 11.825947 -3.306850
v -43.977955 11.825947 -3.306850
v -43.977955 11.825947 -4.928242
v -51.319344 11.825947 -4.928242
v -51.319344 11.825947 -3.306850
v -49.697956 11.825947 -3.306850
v -49.697956 11.825947 -4.928242
v -57.039341 11.825947 -4.928242
v -57.039341 11.825947 -3.306850
v -55.417953 11.825947 -3.306850
v -55.417953 11.825947 -4.928242
v -45.599346 11.825947 -10.268241
v -45.599346 11.825947 -8.646850
v -43.977955 11.825947 -8.646850
v -43.977955 11.825947 -10.268241
v -51.319344 11.825947 -10.268241
v -51.319344 11.825947 -8.646850
v -49.697956 11.825947 -8.646850
v -49.697956 11.825947 -10.268241
v -57.039341 11.825947 -10.268241
v -57.039341 11.825947 -8.646850
v -55.417953 11.825947 -8.646850
v -55.417953 11.825947 -10.268241
v -45.599346 11.825947 -15.608240
v -45.599346 11.825947 -13.986853
v -43.977955 11.825947 -13.986853
v -43.977955 11.825947 -15.608240
v -51.319344 11.825947 -15.608240
v -51.319344 11.825947 -13.986853
v -49.697956 11.825947 -13.986853
v -49.697956 11.825947 -15.608240
v -57.039341 11.825947 -15.608240
v -57.039341 11.825947 -13.986853
v -55.417953 11.825947 -13.986853
v -55.417953 11.825947 -15.608240
v -45.599346 11.825947 -20.948240
v -45.599346 11.825947 -19.326849
v -43.977955 11.825947 -19.326849
v -43.977955 11.825947 -20.948240
v -51.319344 11.825947 -20.948240
v -51.319344 11.825947 -19.326849
v -49.697956 11.825947 -19.326849
v -49.697956 11.825947 -20.948240
v -57.039341 11.825947 -20.948240
v -57.039341 11.825947 -19.326849
v -55.417953 11.825947 -19.326849
v -55.417953 11.825947 -20.948240
v -45.599346 11.825947 -26.288233
v -45.599346 11.825947 -24.666842
v -43.977955 11.825947 -24.666842
v -43.977955 11.825947 -26.288233
v -51.319344 11.825947 -26.288233
v -51.319344 11.825947 -24.666842
v -49.697956 11.825947 -24.666842
v -49.697956 11.825947 -26.288233
v -57.039341 11.825947 -26.288233
v -57.039341 11.825947 -24.666842
v -55.417953 11.825947 -24.666842
v -55.417953 11.825947 -26.288233
v -45.599346 11.825954 -31.628237
v -45.599346 11.825954 -30.006853
v -43.977955 11.825954 -30.006853
v -43.977955 11.825954 -31.628237
v -51.319344 11.825954 -31.628237
v -51.319344 11.825954 -30.006853
v -49.697956 11.825954 -30.006853
v -49.697956 11.825954 -31.628237
v -57.039341 11.825954 -31.628237
v -57.039341 11.825954 -30.006853
v -55.417953 11.825954 -30.006853
v -55.417953 11.825954 -31.628237
v -45.599346 11.825954 -36.968231
v -45.599346 11.825954 -35.346848
v -43.977955 11.825954 -35.346848
v -43.977955 11.825954 -36.968231
v -51.319344 11.825954 -36.968231
v -51.319344 11.825954 -35.346848
v -49.697956 11.825954 -35.346848
v -49.697956 11.825954 -36.968231
v -57.039341 11.825954 -36.968231
v -57.039341 11.825954 -35.346848
v -55.417953 11.825954 -35.346848
v -55.417953 11.825954 -36.968231
v -45.599346 11.825954 -42.308235
v -45.599346 11.825954 -40.686852
v -43.977955 11.825954 -40.686852
v -43.977955 11.825954 -42.308235
v -51.319344 11.825954 -42.308235
v -51.319344 11.825954 -40.686852
v -49.697956 11.825954 -40.686852
v -49.697956 11.825954 -42.308235
v -57.039341 11.825954 -42.308235
v -57.039341 11.825954 -40.686852
v -55.417953 11.825954 -40.686852
v -55.417953 11.825954 -42.308235
v -45.599346 11.825954 -47.648232
v -45.599346 11.825954 -46.026848
v -43.977955 11.825954 -46.026848
v -43.977955 11.825954 -47.648232
v -51.319344 11.825954 -47.648232
v -51.319344 11.825954 -46.026848
v -49.697956 11.825954 -46.026848
v -49.697956 11.825954 -47.648232
v -57.039341 11.825954 -47.648232
v -57.039341 11.825954 -46.026848
v -55.417953 11.825954 -46.026848
v -55.417953 11.825954 -47.648232
v -45.599346 11.825954 -52.988228
v -45.599346 11.825954 -51.366844
v -43.977955 11.825954 -51.366844
v -43.977955 11.825954 -52.988228
v -51.319344 11.825954 -52.988228
v -51.319344 11.825954 -51.366844
v -49.697956 11.825954 -51.366844
v -49.697956 11.825954 -52.988228
v -57.039341 11.825954 -52.988228
v -57.039341 11.825954 -51.366844
v -55.417953 11.825954 -51.366844
v -55.417953 11.825954 -52.988228
v -45.599346 11.825954 -58.328239
v -45.599346 11.825954 -56.706848
v -43.977955 11.825954 -56.706848
v -43.977955 11.825954 -58.328239
v -51.319344 11.825954 -58.328239
v -51.319344 11.825954 -56.706848
v -49.697956 11.825954 -56.706848
v -49.697956 11.825954 -58.328239
v -57.039341 11.825954 -58.328239
v -57.039341 11.825954 -56.706848
v -55.417953 11.825954 -56.706848
v -55.417953 11.825954 -58.328239
v 55.011806 35.802052 57.467209
v 55.011806 35.802048 59.088600
v 56.633194 35.802048 59.088600
v 56.633194 35.802052 57.467209
v 49.291805 35.802052 57.467209
v 49.291805 35.802048 59.088600
v 50.913193 35.802048 59.088600
v 50.913193 35.802052 57.467209
v 43.571808 35.802052 57.467209
v 43.571808 35.802048 59.088600
v 45.193195 35.802048 59.088600
v 45.193195 35.802052 57.467209
v 55.011806 35.802052 52.127213
v 55.011806 35.802052 53.748604
v 56.633194 35.802052 53.748604
v 56.633194 35.802052 52.127213
v 49.291805 35.802052 52.127213
v 49.291805 35.802052 53.748604
v 50.913193 35.802052 53.748604
v 50.913193 35.802052 52.127213
v 43.571808 35.802052 52.127213
v 43.571808 35.802052 53.748604
v 45.193195 35.802052 53.748604
v 45.193195 35.802052 52.127213
v 55.011806 35.802052 46.787216
v 55.011806 35.802052 48.408607
v 56.633194 35.802052 48.408607
v 56.633194 35.802052 46.787216
v 49.291805 35.802052 46.787216
v 49.291805 35.802052 48.408607
v 50.913193 35.802052 48.408607
v 50.913193 35.802052 46.787216
v 43.571808 35.802052 46.787216
v 43.571808 35.802052 48.408607
v 45.193195 35.802052 48.408607
v 45.193195 35.802052 46.787216
v 55.011806 35.802055 41.447220
v 55.011806 35.802052 43.068604
v 56.633194 35.802052 43.068604
v 56.633194 35.802055 41.447220
v 49.291805 35.802055 41.447220
v 49.291805 35.802052 43.068604
v 50.913193 35.802052 43.068604
v 50.913193 35.802055 41.447220
v 43.571808 35.802055 41.447220
v 43.571808 35.802052 43.068604
v 45.193195 35.802052 43.068604
v 45.193195 35.802055 41.447220
v 55.011806 35.802055 36.107216
v 55.011806 35.802055 37.728607
v 56.633194 35.802055 37.728607
v 56.633194 35.802055 36.107216
v 49.291805 35.802055 36.107216
v 49.291805 35.802055 37.728607
v 50.913193 35.802055 37.728607
v 50.913193 35.802055 36.107216
v 43.571808 35.802055 36.107216
v 43.571808 35.802055 37.728607
v 45.193195 35.802055 37.728607
v 45.193195 35.802055 36.107216
v 55.011806 35.802055 30.767216
v 55.011806 35.802055 32.388603
v 56.633194 35.802055 32.388603
v 56.633194 35.802055 30.767216
v 49.291805 35.802055 30.767216
v 49.291805 35.802055 32.388603
v 50.913193 35.802055 32.388603
v 50.913193 35.802055 30.767216
v 43.571808 35.802055 30.767216
v 43.571808 35.802055 32.388603
v 45.193195 35.802055 32.388603
v 45.193195 35.802055 30.767216
v 55.011806 35.802055 25.427217
v 55.011806 35.802055 27.048607
v 56.633194 35.802055 27.048607
v 56.633194 35.802055 25.427217
v 49.291805 35.802055 25.427217
v 49.291805 35.802055 27.048607
v 50.913193 35.802055 27.048607
v 50.913193 35.802055 25.427217
v 43.571808 35.802055 25.427217
v 43.571808 35.802055 27.048607
v 45.193195 35.802055 27.048607
v 45.193195 35.802055 25.427217
v 55.011806 35.802055 20.087217
v 55.011806 35.802055 21.708609
v 56.633194 35.802055 21.708609
v 56.633194 35.802055 20.087217
v 49.291805 35.802055 20.087217
v 49.291805 35.802055 21.708609
v 50.913193 35.802055 21.708609
v 50.913193 35.802055 20.087217
v 43.571808 35.802055 20.087217
v 43.571808 35.802055 21.708609
v 45.193195 35.802055 21.708609
v 45.193195 35.802055 20.087217
v 55.011806 35.802055 14.747217
v 55.011806 35.802055 16.368608
v 56.633194 35.802055 16.368608
v 56.633194 35.802055 14.747217
v 49.291805 35.802055 14.747217
v 49.291805 35.802055 16.368608
v 50.913193 35.802055 16.368608
v 50.913193 35.802055 14.747217
v 43.571808 35.802055 14.747217
v 43.571808 35.802055 16.368608
v 45.193195 35.802055 16.368608
v 45.193195 35.802055 14.747217
v 55.011806 35.802059 9.407217
v 55.011806 35.802059 11.028608
v 56.633194 35.802059 11.028608
v 56.633194 35.802059 9.407217
v 49.291805 35.802059 9.407217
v 49.291805 35.802059 11.028608
v 50.913193 35.802059 11.028608
v 50.913193 35.802059 9.407217
v 43.571808 35.802059 9.407217
v 43.571808 35.802059 11.028608
v 45.193195 35.802059 11.028608
v 45.193195 35.802059 9.407217
v 55.011806 35.802059 4.067217
v 55.011806 35.802059 5.688605
v 56.633194 35.802059 5.688605
v 56.633194 35.802059 4.067217
v 49.291805 35.802059 4.067217
v 49.291805 35.802059 5.688605
v 50.913193 35.802059 5.688605
v 50.913193 35.802059 4.067217
v 43.571808 35.802059 4.067217
v 43.571808 35.802059 5.688605
v 45.193195 35.802059 5.688605
v 45.193195 35.802059 4.067217
v 55.011806 35.802059 -1.272782
v 55.011806 35.802059 0.348609
v 56.633194 35.802059 0.348609
v 56.633194 35.802059 -1.272782
v 49.291805 35.802059 -1.272782
v 49.291805 35.802059 0.348609
v 50.913193 35.802059 0.348609
v 50.913193 35.802059 -1.272782
v 43.571808 35.802059 -1.272782
v 43.571808 35.802059 0.348609
v 45.193195 35.802059 0.348609
v 45.193195 35.802059 -1.272782
v 55.011806 35.802063 -6.612775
v 55.011806 35.802063 -4.991383
v 56.633194 35.802063 -4.991383
v 56.633194 35.802063 -6.612775
v 49.291805 35.802063 -6.612775
v 49.291805 35.802063 -4.991383
v 50.913193 35.802063 -4.991383
v 50.913193 35.802063 -6.612775
v 43.571808 35.802063 -6.612775
v 43.571808 35.802063 -4.991383
v 45.193195 35.802063 -4.991383
v 45.193195 35.802063 -6.612775
v 55.011806 35.802063 -11.952778
v 55.011806 35.802063 -10.331394
v 56.633194 35.802063 -10.331394
v 56.633194 35.802063 -11.952778
v 49.291805 35.802063 -11.952778
v 49.291805 35.802063 -10.331394
v 50.913193 35.802063 -10.331394
v 50.913193 35.802063 -11.952778
v 43.571808 35.802063 -11.952778
v 43.571808 35.802063 -10.331394
v 45.193195 35.802063 -10.331394
v 45.193195 35.802063 -11.952778
v 55.011806 35.802063 -17.292774
v 55.011806 35.802063 -15.671391
v 56.633194 35.802063 -15.671391
v 56.633194 35.802063 -17.292774
v 49.291805 35.802063 -17.292774
v 49.291805 35.802063 -15.671391
v 50.913193 35.802063 -15.671391
v 50.913193 35.802063 -17.292774
v 43.571808 35.802063 -17.292774
v 43.571808 35.802063 -15.671391
v 45.193195 35.802063 -15.671391
v 45.193195 35.802063 -17.292774
v 55.011806 35.802063 -22.632778
v 55.011806 35.802063 -21.011395
v 56.633194 35.802063 -21.011395
v 56.633194 35.802063 -22.632778
v 49.291805 35.802063 -22.632778
v 49.291805 35.802063 -21.011395
v 50.913193 35.802063 -21.011395
v 50.913193 35.802063 -22.632778
v 43.571808 35.802063 -22.632778
v 43.571808 35.802063 -21.011395
v 45.193195 35.802063 -21.011395
v 45.193195 35.802063 -22.632778
v 55.011806 35.802063 -27.972773
v 55.011806 35.802063 -26.351389
v 56.633194 35.802063 -26.351389
v 56.633194 35.802063 -27.972773
v 49.291805 35.802063 -27.972773
v 49.291805 35.802063 -26.351389
v 50.913193 35.802063 -26.351389
v 50.913193 35.802063 -27.972773
v 43.571808 35.802063 -27.972773
v 43.571808 35.802063 -26.351389
v 45.193195 35.802063 -26.351389
v 45.193195 35.802063 -27.972773
v 55.011806 35.802063 -33.312767
v 55.011806 35.802063 -31.691385
v 56.633194 35.802063 -31.691385
v 56.633194 35.802063 -33.312767
v 49.291805 35.802063 -33.312767
v 49.291805 35.802063 -31.691385
v 50.913193 35.802063 -31.691385
v 50.913193 35.802063 -33.312767
v 43.571808 35.802063 -33.312767
v 43.571808 35.802063 -31.691385
v 45.193195 35.802063 -31.691385
v 45.193195 35.802063 -33.312767
v 55.011806 35.802063 -38.652771
v 55.011806 35.802063 -37.031387
v 56.633194 35.802063 -37.031387
v 56.633194 35.802063 -38.652771
v 49.291805 35.802063 -38.652771
v 49.291805 35.802063 -37.031387
v 50.913193 35.802063 -37.031387
v 50.913193 35.802063 -38.652771
v 43.571808 35.802063 -38.652771
v 43.571808 35.802063 -37.031387
v 45.193195 35.802063 -37.031387
v 45.193195 35.802063 -38.652771
v 55.011806 83.766632 57.467209
v 55.011806 83.766632 59.088600
v 56.633194 83.766632 59.088600
v 56.633194 83.766632 57.467209
v 49.291805 83.766632 57.467209
v 49.291805 83.766632 59.088600
v 50.913193 83.766632 59.088600
v 50.913193 83.766632 57.467209
v 43.571808 83.766632 57.467209
v 43.571808 83.766632 59.088600
v 45.193195 83.766632 59.088600
v 45.193195 83.766632 57.467209
v 55.011806 83.766632 52.127213
v 55.011806 83.766632 53.748604
v 56.633194 83.766632 53.748604
v 56.633194 83.766632 52.127213
v 49.291805 83.766632 52.127213
v 49.291805 83.766632 53.748604
v 50.913193 83.766632 53.748604
v 50.913193 83.766632 52.127213
v 43.571808 83.766632 52.127213
v 43.571808 83.766632 53.748604
v 45.193195 83.766632 53.748604
v 45.193195 83.766632 52.127213
v 55.011806 83.766632 46.787216
v 55.011806 83.766632 48.408607
v 56.633194 83.766632 48.408607
v 56.633194 83.766632 46.787216
v 49.291805 83.766632 46.787216
v 49.291805 83.766632 48.408607
v 50.913193 83.766632 48.408607
v 50.913193 83.766632 46.787216
v 43.571808 83.766632 46.787216
v 43.571808 83.766632 48.408607
v 45.193195 83.766632 48.408607
v 45.193195 83.766632 46.787216
v 55.011806 83.766632 41.447220
v 55.011806 83.766632 43.068604
v 56.633194 83.766632 43.068604
v 56.633194 83.766632 41.447220
v 49.291805 83.766632 41.447220
v 49.291805 83.766632 43.068604
v 50.913193 83.766632 43.068604
v 50.913193 83.766632 41.447220
v 43.571808 83.766632 41.447220
v 43.571808 83.766632 43.068604
v 45.193195 83.766632 43.068604
v 45.193195 83.766632 41.447220
v 55.011806 83.766632 36.107216
v 55.011806 83.766632 37.728607
v 56.633194 83.766632 37.728607
v 56.633194 83.766632 36.107216
v 49.291805 83.766632 36.107216
v 49.291805 83.766632 37.728607
v 50.913193 83.766632 37.728607
v 50.913193 83.766632 36.107216
v 43.571808 83.766632 36.107216
v 43.571808 83.766632 37.728607
v 45.193195 83.766632 37.728607
v 45.193195 83.766632 36.107216
v 55.011806 83.766632 30.767216
v 55.011806 83.766632 32.388603
v 56.633194 83.766632 32.388603
v 56.633194 83.766632 30.767216
v 49.291805 83.766632 30.767216
v 49.291805 83.766632 32.388603
v 50.913193 83.766632 32.388603
v 50.913193 83.766632 30.767216
v 43.571808 83.766632 30.767216
v 43.571808 83.766632 32.388603
v 45.193195 83.766632 32.388603
v 45.193195 83.766632 30.767216
v 55.011806 83.766632 25.427217
v 55.011806 83.766632 27.048607
v 56.633194 83.766632 27.048607
v 56.633194 83.766632 25.427217
v 49.291805 83.766632 25.427217
v 49.291805 83.766632 27.048607
v 50.913193 83.766632 27.048607
v 50.913193 83.766632 25.427217
v 43.571808 83.766632 25.427217
v 43.571808 83.766632 27.048607
v 45.193195 83.766632 27.048607
v 45.193195 83.766632 25.427217
v 55.011806 83.766632 20.087217
v 55.011806 83.766632 21.708609
v 56.633194 83.766632 21.708609
v 56.633194 83.766632 20.087217
v 49.291805 83.766632 20.087217
v 49.291805 83.766632 21.708609
v 50.913193 83.766632 21.708609
v 50.913193 83.766632 20.087217
v 43.571808 83.766632 20.087217
v 43.571808 83.766632 21.708609
v 45.193195 83.766632 21.708609
v 45.193195 83.766632 20.087217
v 55.011806 83.766632 14.747217
v 55.011806 83.766632 16.368608
v 56.633194 83.766632 16.368608
v 56.633194 83.766632 14.747217
v 49.291805 83.766632 14.747217
v 49.291805 83.766632 16.368608
v 50.913193 83.766632 16.368608
v 50.913193 83.766632 14.747217
v 43.571808 83.766632 14.747217
v 43.571808 83.766632 16.368608
v 45.193195 83.766632 16.368608
v 45.193195 83.766632 14.747217
v 55.011806 83.766640 9.407217
v 55.011806 83.766640 11.028608
v 56.633194 83.766640 11.028608
v 56.633194 83.766640 9.407217
v 49.291805 83.766640 9.407217
v 49.291805 83.766640 11.028608
v 50.913193 83.766640 11.028608
v 50.913193 83.766640 9.407217
v 43.571808 83.766640 9.407217
v 43.571808 83.766640 11.028608
v 45.193195 83.766640 11.028608
v 45.193195 83.766640 9.407217
v 55.011806 83.766640 4.067217
v 55.011806 83.766640 5.688605
v 56.633194 83.766640 5.688605
v 56.633194 83.766640 4.067217
v 49.291805 83.766640 4.067217
v 49.291805 83.766640 5.688605
v 50.913193 83.766640 5.688605
v 50.913193 83.766640 4.067217
v 43.571808 83.766640 4.067217
v 43.571808 83.766640 5.688605
v 45.193195 83.766640 5.688605
v 45.193195 83.766640 4.067217
v 55.011806 83.766640 -1.272782
v 55.011806 83.766640 0.348609
v 56.633194 83.766640 0.348609
v 56.633194 83.766640 -1.272782
v 49.291805 83.766640 -1.272782
v 49.291805 83.766640 0.348609
v 50.913193 83.766640 0.348609
v 50.913193 83.766640 -1.272782
v 43.571808 83.766640 -1.272782
v 43.571808 83.766640 0.348609
v 45.193195 83.766640 0.348609
v 45.193195 83.766640 -1.272782
v 55.011806 83.766640 -6.612775
v 55.011806 83.766640 -4.991383
v 56.633194 83.766640 -4.991383
v 56.633194 83.766640 -6.612775
v 49.291805 83.766640 -6.612775
v 49.291805 83.766640 -4.991383
v 50.913193 83.766640 -4.991383
v 50.913193 83.766640 -6.612775
v 43.571808 83.766640 -6.612775
v 43.571808 83.766640 -4.991383
v 45.193195 83.766640 -4.991383
v 45.193195 83.766640 -6.612775
v 55.011806 83.766640 -11.952778
v 55.011806 83.766640 -10.331394
v 56.633194 83.766640 -10.331394
v 56.633194 83.766640 -11.952778
v 49.291805 83.766640 -11.952778
v 49.291805 83.766640 -10.331394
v 50.913193 83.766640 -10.331394
v 50.913193 83.766640 -11.952778
v 43.571808 83.766640 -11.952778
v 43.571808 83.766640 -10.331394
v 45.193195 83.766640 -10.331394
v 45.193195 83.766640 -11.952778
v 55.011806 83.766640 -17.292774
v 55.011806 83.766640 -15.671391
v 56.633194 83.766640 -15.671391
v 56.633194 83.766640 -17.292774
v 49.291805 83.766640 -17.292774
v 49.291805 83.766640 -15.671391
v 50.913193 83.766640 -15.671391
v 50.913193 83.766640 -17.292774
v 43.571808 83.766640 -17.292774
v 43.571808 83.766640 -15.671391
v 45.193195 83.766640 -15.671391
v 45.193195 83.766640 -17.292774
v 55.011806 83.766647 -22.632778
v 55.011806 83.766647 -21.011395
v 56.633194 83.766647 -21.011395
v 56.633194 83.766647 -22.632778
v 49.291805 83.766647 -22.632778
v 49.291805 83.766647 -21.011395
v 50.913193 83.766647 -21.011395
v 50.913193 83.766647 -22.632778
v 43.571808 83.766647 -22.632778
v 43.571808 83.766647 -21.011395
v 45.193195 83.766647 -21.011395
v 45.193195 83.766647 -22.632778
v 55.011806 83.766647 -27.972773
v 55.011806 83.766647 -26.351389
v 56.633194 83.766647 -26.351389
v 56.633194 83.766647 -27.972773
v 49.291805 83.766647 -27.972773
v 49.291805 83.766647 -26.351389
v 50.913193 83.766647 -26.351389
v 50.913193 83.766647 -27.972773
v 43.571808 83.766647 -27.972773
v 43.571808 83.766647 -26.351389
v 45.193195 83.766647 -26.351389
v 45.193195 83.766647 -27.972773
v 55.011806 83.766647 -33.312767
v 55.011806 83.766647 -31.691385
v 56.633194 83.766647 -31.691385
v 56.633194 83.766647 -33.312767
v 49.291805 83.766647 -33.312767
v 49.291805 83.766647 -31.691385
v 50.913193 83.766647 -31.691385
v 50.913193 83.766647 -33.312767
v 43.571808 83.766647 -33.312767
v 43.571808 83.766647 -31.691385
v 45.193195 83.766647 -31.691385
v 45.193195 83.766647 -33.312767
v 55.011806 83.766647 -38.652771
v 55.011806 83.766647 -37.031387
v 56.633194 83.766647 -37.031387
v 56.633194 83.766647 -38.652771
v 49.291805 83.766647 -38.652771
v 49.291805 83.766647 -37.031387
v 50.913193 83.766647 -37.031387
v 50.913193 83.766647 -38.652771
v 43.571808 83.766647 -38.652771
v 43.571808 83.766647 -37.031387
v 45.193195 83.766647 -37.031387
v 45.193195 83.766647 -38.652771
v -46.289684 118.338776 -46.289688
v -46.289684 118.338776 46.289688
v 46.289680 118.338776 -46.289688
v 46.289680 118.338776 46.289688
vn -0.0000 -1.0000 -0.0000
vt 0.648663 0.523663
vt 0.851337 0.523663
vt 0.851337 0.726337
vt 0.648663 0.726337
vt 0.135330 0.510330
vt 0.364670 0.510330
vt 0.364670 0.739670
vt 0.135330 0.739670
s 0
f 3/1/1 2/2/1 1/3/1 4/4/1
f 7/1/1 6/2/1 5/3/1 8/4/1
f 11/1/1 10/2/1 9/3/1 12/4/1
f 15/1/1 14/2/1 13/3/1 16/4/1
f 19/1/1 18/2/1 17/3/1 20/4/1
f 23/1/1 22/2/1 21/3/1 24/4/1
f 27/1/1 26/2/1 25/3/1 28/4/1
f 31/1/1 30/2/1 29/3/1 32/4/1
f 35/1/1 34/2/1 33/3/1 36/4/1
f 39/1/1 38/2/1 37/3/1 40/4/1
f 43/1/1 42/2/1 41/3/1 44/4/1
f 47/1/1 46/2/1 45/3/1 48/4/1
f 51/1/1 50/2/1 49/3/1 52/4/1
f 55/1/1 54/2/1 53/3/1 56/4/1
f 59/1/1 58/2/1 57/3/1 60/4/1
f 63/1/1 62/2/1 61/3/1 64/4/1
f 67/1/1 66/2/1 65/3/1 68/4/1
f 71/1/1 70/2/1 69/3/1 72/4/1
f 75/1/1 74/2/1 73/3/1 76/4/1
f 79/1/1 78/2/1 77/3/1 80/4/1
f 83/1/1 82/2/1 81/3/1 84/4/1
f 87/1/1 86/2/1 85/3/1 88/4/1
f 91/1/1 90/2/1 89/3/1 92/4/1
f 95/1/1 94/2/1 93/3/1 96/4/1
f 99/1/1 98/2/1 97/3/1 100/4/1
f 103/1/1 102/2/1 101/3/1 104/4/1
f 107/1/1 106/2/1 105/3/1 108/4/1
f 111/1/1 110/2/1 109/3/1 112/4/1
f 115/1/1 114/2/1 113/3/1 116/4/1
f 119/1/1 118/2/1 117/3/1 120/4/1
f 123/1/1 122/2/1 121/3/1 124/4/1
f 127/1/1 126/2/1 125/3/1 128/4/1
f 131/1/1 130/2/1 129/3/1 132/4/1
f 135/1/1 134/2/1 133/3/1 136/4/1
f 139/1/1 138/2/1 137/3/1 140/4/1
f 143/1/1 142/2/1 141/3/1 144/4/1
f 147/1/1 146/2/1 145/3/1 148/4/1
f 151/1/1 150/2/1 149/3/1 152/4/1
f 155/1/1 154/2/1 153/3/1 156/4/1
f 159/1/1 158/2/1 157/3/1 160/4/1
f 163/1/1 162/2/1 161/3/1 164/4/1
f 167/1/1 166/2/1 165/3/1 168/4/1
f 171/1/1 170/2/1 169/3/1 172/4/1
f 175/1/1 174/2/1 173/3/1 176/4/1
f 179/1/1 178/2/1 177/3/1 180/4/1
f 183/1/1 182/2/1 181/3/1 184/4/1
f 187/1/1 186/2/1 185/3/1 188/4/1
f 191/1/1 190/2/1 189/3/1 192/4/1
f 195/1/1 194/2/1 193/3/1 196/4/1
f 199/1/1 198/2/1 197/3/1 200/4/1
f 203/1/1 202/2/1 201/3/1 204/4/1
f 207/1/1 206/2/1 205/3/1 208/4/1
f 211/1/1 210/2/1 209/3/1 212/4/1
f 215/1/1 214/2/1 213/3/1 216/4/1
f 219/1/1 218/2/1 217/3/1 220/4/1
f 223/1/1 222/2/1 221/3/1 224/4/1
f 227/1/1 226/2/1 225/3/1 228/4/1
f 231/1/1 230/2/1 229/3/1 232/4/1
f 235/1/1 234/2/1 233/3/1 236/4/1
f 239/1/1 238/2/1 237/3/1 240/4/1
f 243/1/1 242/2/1 241/3/1 244/4/1
f 247/1/1 246/2/1 245/3/1 248/4/1
f 251/1/1 250/2/1 249/3/1 252/4/1
f 255/1/1 254/2/1 253/3/1 256/4/1
f 259/1/1 258/2/1 257/3/1 260/4/1
f 263/1/1 262/2/1 261/3/1 264/4/1
f 267/1/1 266/2/1 265/3/1 268/4/1
f 271/1/1 270/2/1 269/3/1 272/4/1
f 275/1/1 274/2/1 273/3/1 276/4/1
f 279/1/1 278/2/1 277/3/1 280/4/1
f 283/1/1 282/2/1 281/3/1 284/4/1
f 287/1/1 286/2/1 285/3/1 288/4/1
f 291/1/1 290/2/1 289/3/1 292/4/1
f 295/1/1 294/2/1 293/3/1 296/4/1
f 299/1/1 298/2/1 297/3/1 300/4/1
f 303/1/1 302/2/1 301/3/1 304/4/1
f 307/1/1 306/2/1 305/3/1 308/4/1
f 311/1/1 310/2/1 309/3/1 312/4/1
f 315/1/1 314/2/1 313/3/1 316/4/1
f 319/1/1 318/2/1 317/3/1 320/4/1
f 323/1/1 322/2/1 321/3/1 324/4/1
f 327/1/1 326/2/1 325/3/1 328/4/1
f 331/1/1 330/2/1 329/3/1 332/4/1
f 335/1/1 334/2/1 333/3/1 336/4/1
f 339/1/1 338/2/1 337/3/1 340/4/1
f 343/1/1 342/2/1 341/3/1 344/4/1
f 347/1/1 346/2/1 345/3/1 348/4/1
f 351/1/1 350/2/1 349/3/1 352/4/1
f 355/1/1 354/2/1 353/3/1 356/4/1
f 359/1/1 358/2/1 357/3/1 360/4/1
f 363/1/1 362/2/1 361/3/1 364/4/1
f 367/1/1 366/2/1 365/3/1 368/4/1
f 371/1/1 370/2/1 369/3/1 372/4/1
f 375/1/1 374/2/1 373/3/1 376/4/1
f 379/1/1 378/2/1 377/3/1 380/4/1
f 383/1/1 382/2/1 381/3/1 384/4/1
f 387/1/1 386/2/1 385/3/1 388/4/1
f 391/1/1 390/2/1 389/3/1 392/4/1
f 395/1/1 394/2/1 393/3/1 396/4/1
f 399/1/1 398/2/1 397/3/1 400/4/1
f 403/1/1 402/2/1 401/3/1 404/4/1
f 407/1/1 406/2/1 405/3/1 408/4/1
f 411/1/1 410/2/1 409/3/1 412/4/1
f 415/1/1 414/2/1 413/3/1 416/4/1
f 419/1/1 418/2/1 417/3/1 420/4/1
f 423/1/1 422/2/1 421/3/1 424/4/1
f 427/1/1 426/2/1 425/3/1 428/4/1
f 431/1/1 430/2/1 429/3/1 432/4/1
f 435/1/1 434/2/1 433/3/1 436/4/1
f 439/1/1 438/2/1 437/3/1 440/4/1
f 443/1/1 442/2/1 441/3/1 444/4/1
f 447/1/1 446/2/1 445/3/1 448/4/1
f 451/1/1 450/2/1 449/3/1 452/4/1
f 455/1/1 454/2/1 453/3/1 456/4/1
f 459/1/1 458/2/1 457/3/1 460/4/1
f 463/1/1 462/2/1 461/3/1 464/4/1
f 467/1/1 466/2/1 465/3/1 468/4/1
f 471/1/1 470/2/1 469/3/1 472/4/1
f 475/1/1 474/2/1 473/3/1 476/4/1
f 479/1/1 478/2/1 477/3/1 480/4/1
f 483/1/1 482/2/1 481/3/1 484/4/1
f 487/1/1 486/2/1 485/3/1 488/4/1
f 491/1/1 490/2/1 489/3/1 492/4/1
f 495/1/1 494/2/1 493/3/1 496/4/1
f 499/1/1 498/2/1 497/3/1 500/4/1
f 503/1/1 502/2/1 501/3/1 504/4/1
f 507/1/1 506/2/1 505/3/1 508/4/1
f 511/1/1 510/2/1 509/3/1 512/4/1
f 515/1/1 514/2/1 513/3/1 516/4/1
f 519/1/1 518/2/1 517/3/1 520/4/1
f 523/1/1 522/2/1 521/3/1 524/4/1
f 527/1/1 526/2/1 525/3/1 528/4/1
f 531/1/1 530/2/1 529/3/1 532/4/1
f 535/1/1 534/2/1 533/3/1 536/4/1
f 539/1/1 538/2/1 537/3/1 540/4/1
f 543/1/1 542/2/1 541/3/1 544/4/1
f 547/1/1 546/2/1 545/3/1 548/4/1
f 551/1/1 550/2/1 549/3/1 552/4/1
f 555/1/1 554/2/1 553/3/1 556/4/1
f 559/1/1 558/2/1 557/3/1 560/4/1
f 563/1/1 562/2/1 561/3/1 564/4/1
f 567/1/1 566/2/1 565/3/1 568/4/1
f 571/1/1 570/2/1 569/3/1 572/4/1
f 575/1/1 574/2/1 573/3/1 576/4/1
f 579/1/1 578/2/1 577/3/1 580/4/1
f 583/1/1 582/2/1 581/3/1 584/4/1
f 587/1/1 586/2/1 585/3/1 588/4/1
f 591/1/1 590/2/1 589/3/1 592/4/1
f 595/1/1 594/2/1 593/3/1 596/4/1
f 599/1/1 598/2/1 597/3/1 600/4/1
f 603/1/1 602/2/1 601/3/1 604/4/1
f 607/1/1 606/2/1 605/3/1 608/4/1
f 611/1/1 610/2/1 609/3/1 612/4/1
f 615/1/1 614/2/1 613/3/1 616/4/1
f 619/1/1 618/2/1 617/3/1 620/4/1
f 623/1/1 622/2/1 621/3/1 624/4/1
f 627/1/1 626/2/1 625/3/1 628/4/1
f 631/1/1 630/2/1 629/3/1 632/4/1
f 635/1/1 634/2/1 633/3/1 636/4/1
f 639/1/1 638/2/1 637/3/1 640/4/1
f 643/1/1 642/2/1 641/3/1 644/4/1
f 647/1/1 646/2/1 645/3/1 648/4/1
f 651/1/1 650/2/1 649/3/1 652/4/1
f 655/1/1 654/2/1 653/3/1 656/4/1
f 659/1/1 658/2/1 657/3/1 660/4/1
f 663/1/1 662/2/1 661/3/1 664/4/1
f 667/1/1 666/2/1 665/3/1 668/4/1
f 671/1/1 670/2/1 669/3/1 672/4/1
f 675/1/1 674/2/1 673/3/1 676/4/1
f 679/1/1 678/2/1 677/3/1 680/4/1
f 683/1/1 682/2/1 681/3/1 684/4/1
f 687/1/1 686/2/1 685/3/1 688/4/1
f 691/1/1 690/2/1 689/3/1 692/4/1
f 695/1/1 694/2/1 693/3/1 696/4/1
f 699/1/1 698/2/1 697/3/1 700/4/1
f 703/1/1 702/2/1 701/3/1 704/4/1
f 707/1/1 706/2/1 705/3/1 708/4/1
f 711/1/1 710/2/1 709/3/1 712/4/1
f 715/1/1 714/2/1 713/3/1 716/4/1
f 719/1/1 718/2/1 717/3/1 720/4/1
f 723/1/1 722/2/1 721/3/1 724/4/1
f 727/1/1 726/2/1 725/3/1 728/4/1
f 731/1/1 730/2/1 729/3/1 732/4/1
f 735/1/1 734/2/1 733/3/1 736/4/1
f 739/1/1 738/2/1 737/3/1 740/4/1
f 743/1/1 742/2/1 741/3/1 744/4/1
f 747/1/1 746/2/1 745/3/1 748/4/1
f 751/1/1 750/2/1 749/3/1 752/4/1
f 755/1/1 754/2/1 753/3/1 756/4/1
f 759/1/1 758/2/1 757/3/1 760/4/1
f 763/1/1 762/2/1 761/3/1 764/4/1
f 767/1/1 766/2/1 765/3/1 768/4/1
f 771/1/1 770/2/1 769/3/1 772/4/1
f 775/1/1 774/2/1 773/3/1 776/4/1
f 779/1/1 778/2/1 777/3/1 780/4/1
f 783/1/1 782/2/1 781/3/1 784/4/1
f 787/1/1 786/2/1 785/3/1 788/4/1
f 791/1/1 790/2/1 789/3/1 792/4/1
f 795/1/1 794/2/1 793/3/1 796/4/1
f 799/1/1 798/2/1 797/3/1 800/4/1
f 803/1/1 802/2/1 801/3/1 804/4/1
f 807/1/1 806/2/1 805/3/1 808/4/1
f 811/1/1 810/2/1 809/3/1 812/4/1
f 815/1/1 814/2/1 813/3/1 816/4/1
f 819/1/1 818/2/1 817/3/1 820/4/1
f 823/1/1 822/2/1 821/3/1 824/4/1
f 827/1/1 826/2/1 825/3/1 828/4/1
f 831/1/1 830/2/1 829/3/1 832/4/1
f 835/1/1 834/2/1 833/3/1 836/4/1
f 839/1/1 838/2/1 837/3/1 840/4/1
f 843/1/1 842/2/1 841/3/1 844/4/1
f 847/1/1 846/2/1 845/3/1 848/4/1
f 851/1/1 850/2/1 849/3/1 852/4/1
f 855/1/1 854/2/1 853/3/1 856/4/1
f 859/1/1 858/2/1 857/3/1 860/4/1
f 863/1/1 862/2/1 861/3/1 864/4/1
f 867/1/1 866/2/1 865/3/1 868/4/1
f 871/1/1 870/2/1 869/3/1 872/4/1
f 875/1/1 874/2/1 873/3/1 876/4/1
f 879/1/1 878/2/1 877/3/1 880/4/1
f 883/1/1 882/2/1 881/3/1 884/4/1
f 887/1/1 886/2/1 885/3/1 888/4/1
f 891/1/1 890/2/1 889/3/1 892/4/1
f 895/1/1 894/2/1 893/3/1 896/4/1
f 899/1/1 898/2/1 897/3/1 900/4/1
f 903/1/1 902/2/1 901/3/1 904/4/1
f 907/1/1 906/2/1 905/3/1 908/4/1
f 911/1/1 910/2/1 909/3/1 912/4/1
f 915/1/1 914/2/1 913/3/1 916/4/1
f 919/1/1 918/2/1 917/3/1 920/4/1
f 923/1/1 922/2/1 921/3/1 924/4/1
f 927/1/1 926/2/1 925/3/1 928/4/1
f 931/1/1 930/2/1 929/3/1 932/4/1
f 935/1/1 934/2/1 933/3/1 936/4/1
f 939/1/1 938/2/1 937/3/1 940/4/1
f 943/1/1 942/2/1 941/3/1 944/4/1
f 947/1/1 946/2/1 945/3/1 948/4/1
f 951/1/1 950/2/1 949/3/1 952/4/1
f 955/1/1 954/2/1 953/3/1 956/4/1
f 959/1/1 958/2/1 957/3/1 960/4/1
f 963/1/1 962/2/1 961/3/1 964/4/1
f 967/1/1 966/2/1 965/3/1 968/4/1
f 971/1/1 970/2/1 969/3/1 972/4/1
f 975/1/1 974/2/1 973/3/1 976/4/1
f 979/1/1 978/2/1 977/3/1 980/4/1
f 983/1/1 982/2/1 981/3/1 984/4/1
f 987/1/1 986/2/1 985/3/1 988/4/1
f 991/1/1 990/2/1 989/3/1 992/4/1
f 995/1/1 994/2/1 993/3/1 996/4/1
f 999/1/1 998/2/1 997/3/1 1000/4/1
f 1003/1/1 1002/2/1 1001/3/1 1004/4/1
f 1007/1/1 1006/2/1 1005/3/1 1008/4/1
f 1011/1/1 1010/2/1 1009/3/1 1012/4/1
f 1015/1/1 1014/2/1 1013/3/1 1016/4/1
f 1019/1/1 1018/2/1 1017/3/1 1020/4/1
f 1023/1/1 1022/2/1 1021/3/1 1024/4/1
f 1027/1/1 1026/2/1 1025/3/1 1028/4/1
f 1031/1/1 1030/2/1 1029/3/1 1032/4/1
f 1035/1/1 1034/2/1 1033/3/1 1036/4/1
f 1039/1/1 1038/2/1 1037/3/1 1040/4/1
f 1043/1/1 1042/2/1 1041/3/1 1044/4/1
f 1047/1/1 1046/2/1 1045/3/1 1048/4/1
f 1051/1/1 1050/2/1 1049/3/1 1052/4/1
f 1055/1/1 1054/2/1 1053/3/1 1056/4/1
f 1059/1/1 1058/2/1 1057/3/1 1060/4/1
f 1063/1/1 1062/2/1 1061/3/1 1064/4/1
f 1067/1/1 1066/2/1 1065/3/1 1068/4/1
f 1071/1/1 1070/2/1 1069/3/1 1072/4/1
f 1075/1/1 1074/2/1 1073/3/1 1076/4/1
f 1079/1/1 1078/2/1 1077/3/1 1080/4/1
f 1083/1/1 1082/2/1 1081/3/1 1084/4/1
f 1087/1/1 1086/2/1 1085/3/1 1088/4/1
f 1091/1/1 1090/2/1 1089/3/1 1092/4/1
f 1095/1/1 1094/2/1 1093/3/1 1096/4/1
f 1099/1/1 1098/2/1 1097/3/1 1100/4/1
f 1103/1/1 1102/2/1 1101/3/1 1104/4/1
f 1107/1/1 1106/2/1 1105/3/1 1108/4/1
f 1111/1/1 1110/2/1 1109/3/1 1112/4/1
f 1115/1/1 1114/2/1 1113/3/1 1116/4/1
f 1119/1/1 1118/2/1 1117/3/1 1120/4/1
f 1123/1/1 1122/2/1 1121/3/1 1124/4/1
f 1127/1/1 1126/2/1 1125/3/1 1128/4/1
f 1131/1/1 1130/2/1 1129/3/1 1132/4/1
f 1135/1/1 1134/2/1 1133/3/1 1136/4/1
f 1139/1/1 1138/2/1 1137/3/1 1140/4/1
f 1143/1/1 1142/2/1 1141/3/1 1144/4/1
f 1147/1/1 1146/2/1 1145/3/1 1148/4/1
f 1151/1/1 1150/2/1 1149/3/1 1152/4/1
f 1155/1/1 1154/2/1 1153/3/1 1156/4/1
f 1159/1/1 1158/2/1 1157/3/1 1160/4/1
f 1163/1/1 1162/2/1 1161/3/1 1164/4/1
f 1167/1/1 1166/2/1 1165/3/1 1168/4/1
f 1171/1/1 1170/2/1 1169/3/1 1172/4/1
f 1175/1/1 1174/2/1 1173/3/1 1176/4/1
f 1179/1/1 1178/2/1 1177/3/1 1180/4/1
f 1183/1/1 1182/2/1 1181/3/1 1184/4/1
f 1187/1/1 1186/2/1 1185/3/1 1188/4/1
f 1191/1/1 1190/2/1 1189/3/1 1192/4/1
f 1195/1/1 1194/2/1 1193/3/1 1196/4/1
f 1199/1/1 1198/2/1 1197/3/1 1200/4/1
f 1203/1/1 1202/2/1 1201/3/1 1204/4/1
f 1207/1/1 1206/2/1 1205/3/1 1208/4/1
f 1211/1/1 1210/2/1 1209/3/1 1212/4/1
f 1215/1/1 1214/2/1 1213/3/1 1216/4/1
f 1219/1/1 1218/2/1 1217/3/1 1220/4/1
f 1223/1/1 1222/2/1 1221/3/1 1224/4/1
f 1227/1/1 1226/2/1 1225/3/1 1228/4/1
f 1231/1/1 1230/2/1 1229/3/1 1232/4/1
f 1235/1/1 1234/2/1 1233/3/1 1236/4/1
f 1239/1/1 1238/2/1 1237/3/1 1240/4/1
f 1243/1/1 1242/2/1 1241/3/1 1244/4/1
f 1247/1/1 1246/2/1 1245/3/1 1248/4/1
f 1251/1/1 1250/2/1 1249/3/1 1252/4/1
f 1255/1/1 1254/2/1 1253/3/1 1256/4/1
f 1259/1/1 1258/2/1 1257/3/1 1260/4/1
f 1263/1/1 1262/2/1 1261/3/1 1264/4/1
f 1267/1/1 1266/2/1 1265/3/1 1268/4/1
f 1271/1/1 1270/2/1 1269/3/1 1272/4/1
f 1275/1/1 1274/2/1 1273/3/1 1276/4/1
f 1279/1/1 1278/2/1 1277/3/1 1280/4/1
f 1283/1/1 1282/2/1 1281/3/1 1284/4/1
f 1287/1/1 1286/2/1 1285/3/1 1288/4/1
f 1291/1/1 1290/2/1 1289/3/1 1292/4/1
f 1295/1/1 1294/2/1 1293/3/1 1296/4/1
f 1299/1/1 1298/2/1 1297/3/1 1300/4/1
f 1303/1/1 1302/2/1 1301/3/1 1304/4/1
f 1307/1/1 1306/2/1 1305/3/1 1308/4/1
f 1311/1/1 1310/2/1 1309/3/1 1312/4/1
f 1315/1/1 1314/2/1 1313/3/1 1316/4/1
f 1319/1/1 1318/2/1 1317/3/1 1320/4/1
f 1323/1/1 1322/2/1 1321/3/1 1324/4/1
f 1327/1/1 1326/2/1 1325/3/1 1328/4/1
f 1331/1/1 1330/2/1 1329/3/1 1332/4/1
f 1335/1/1 1334/2/1 1333/3/1 1336/4/1
f 1339/1/1 1338/2/1 1337/3/1 1340/4/1
f 1343/1/1 1342/2/1 1341/3/1 1344/4/1
f 1347/1/1 1346/2/1 1345/3/1 1348/4/1
f 1351/1/1 1350/2/1 1349/3/1 1352/4/1
f 1355/1/1 1354/2/1 1353/3/1 1356/4/1
f 1359/1/1 1358/2/1 1357/3/1 1360/4/1
f 1363/1/1 1362/2/1 1361/3/1 1364/4/1
f 1367/1/1 1366/2/1 1365/3/1 1368/4/1
f 1371/1/1 1370/2/1 1369/3/1 1372/4/1
f 1375/1/1 1374/2/1 1373/3/1 1376/4/1
f 1379/1/1 1378/2/1 1377/3/1 1380/4/1
f 1383/1/1 1382/2/1 1381/3/1 1384/4/1
f 1387/1/1 1386/2/1 1385/3/1 1388/4/1
f 1391/1/1 1390/2/1 1389/3/1 1392/4/1
f 1395/1/1 1394/2/1 1393/3/1 1396/4/1
f 1399/1/1 1398/2/1 1397/3/1 1400/4/1
f 1403/1/1 1402/2/1 1401/3/1 1404/4/1
f 1407/1/1 1406/2/1 1405/3/1 1408/4/1
f 1411/1/1 1410/2/1 1409/3/1 1412/4/1
f 1415/1/1 1414/2/1 1413/3/1 1416/4/1
f 1419/1/1 1418/2/1 1417/3/1 1420/4/1
f 1423/1/1 1422/2/1 1421/3/1 1424/4/1
f 1427/1/1 1426/2/1 1425/3/1 1428/4/1
f 1431/1/1 1430/2/1 1429/3/1 1432/4/1
f 1435/1/1 1434/2/1 1433/3/1 1436/4/1
f 1439/1/1 1438/2/1 1437/3/1 1440/4/1
f 1443/1/1 1442/2/1 1441/3/1 1444/4/1
f 1447/1/1 1446/2/1 1445/3/1 1448/4/1
f 1451/1/1 1450/2/1 1449/3/1 1452/4/1
f 1455/1/1 1454/2/1 1453/3/1 1456/4/1
f 1459/1/1 1458/2/1 1457/3/1 1460/4/1
f 1463/1/1 1462/2/1 1461/3/1 1464/4/1
f 1467/1/1 1466/2/1 1465/3/1 1468/4/1
f 1471/1/1 1470/2/1 1469/3/1 1472/4/1
f 1475/1/1 1474/2/1 1473/3/1 1476/4/1
f 1479/1/1 1478/2/1 1477/3/1 1480/4/1
f 1483/1/1 1482/2/1 1481/3/1 1484/4/1
f 1487/1/1 1486/2/1 1485/3/1 1488/4/1
f 1491/1/1 1490/2/1 1489/3/1 1492/4/1
f 1495/1/1 1494/2/1 1493/3/1 1496/4/1
f 1499/1/1 1498/2/1 1497/3/1 1500/4/1
f 1503/1/1 1502/2/1 1501/3/1 1504/4/1
f 1507/1/1 1506/2/1 1505/3/1 1508/4/1
f 1511/1/1 1510/2/1 1509/3/1 1512/4/1
f 1515/1/1 1514/2/1 1513/3/1 1516/4/1
f 1519/1/1 1518/2/1 1517/3/1 1520/4/1
f 1523/1/1 1522/2/1 1521/3/1 1524/4/1
f 1527/1/1 1526/2/1 1525/3/1 1528/4/1
f 1531/1/1 1530/2/1 1529/3/1 1532/4/1
f 1535/1/1 1534/2/1 1533/3/1 1536/4/1
f 1539/1/1 1538/2/1 1537/3/1 1540/4/1
f 1543/1/1 1542/2/1 1541/3/1 1544/4/1
f 1547/1/1 1546/2/1 1545/3/1 1548/4/1
f 1551/1/1 1550/2/1 1549/3/1 1552/4/1
f 1555/1/1 1554/2/1 1553/3/1 1556/4/1
f 1559/1/1 1558/2/1 1557/3/1 1560/4/1
f 1563/1/1 1562/2/1 1561/3/1 1564/4/1
f 1567/1/1 1566/2/1 1565/3/1 1568/4/1
f 1571/1/1 1570/2/1 1569/3/1 1572/4/1
f 1575/1/1 1574/2/1 1573/3/1 1576/4/1
f 1579/1/1 1578/2/1 1577/3/1 1580/4/1
f 1583/1/1 1582/2/1 1581/3/1 1584/4/1
f 1587/1/1 1586/2/1 1585/3/1 1588/4/1
f 1591/1/1 1590/2/1 1589/3/1 1592/4/1
f 1595/1/1 1594/2/1 1593/3/1 1596/4/1
f 1599/1/1 1598/2/1 1597/3/1 1600/4/1
f 1603/1/1 1602/2/1 1601/3/1 1604/4/1
f 1607/1/1 1606/2/1 1605/3/1 1608/4/1
f 1611/1/1 1610/2/1 1609/3/1 1612/4/1
f 1615/1/1 1614/2/1 1613/3/1 1616/4/1
f 1619/1/1 1618/2/1 1617/3/1 1620/4/1
f 1623/1/1 1622/2/1 1621/3/1 1624/4/1
f 1627/1/1 1626/2/1 1625/3/1 1628/4/1
f 1631/1/1 1630/2/1 1629/3/1 1632/4/1
f 1635/1/1 1634/2/1 1633/3/1 1636/4/1
f 1639/1/1 1638/2/1 1637/3/1 1640/4/1
f 1643/1/1 1642/2/1 1641/3/1 1644/4/1
f 1647/1/1 1646/2/1 1645/3/1 1648/4/1
f 1651/1/1 1650/2/1 1649/3/1 1652/4/1
f 1655/1/1 1654/2/1 1653/3/1 1656/4/1
f 1659/1/1 1658/2/1 1657/3/1 1660/4/1
f 1663/1/1 1662/2/1 1661/3/1 1664/4/1
f 1667/1/1 1666/2/1 1665/3/1 1668/4/1
f 1671/1/1 1670/2/1 1669/3/1 1672/4/1
f 1675/1/1 1674/2/1 1673/3/1 1676/4/1
f 1679/1/1 1678/2/1 1677/3/1 1680/4/1
f 1683/1/1 1682/2/1 1681/3/1 1684/4/1
f 1687/1/1 1686/2/1 1685/3/1 1688/4/1
f 1691/1/1 1690/2/1 1689/3/1 1692/4/1
f 1695/1/1 1694/2/1 1693/3/1 1696/4/1
f 1699/1/1 1698/2/1 1697/3/1 1700/4/1
f 1703/1/1 1702/2/1 1701/3/1 1704/4/1
f 1707/1/1 1706/2/1 1705/3/1 1708/4/1
f 1711/1/1 1710/2/1 1709/3/1 1712/4/1
f 1715/1/1 1714/2/1 1713/3/1 1716/4/1
f 1719/1/1 1718/2/1 1717/3/1 1720/4/1
f 1723/1/1 1722/2/1 1721/3/1 1724/4/1
f 1727/1/1 1726/2/1 1725/3/1 1728/4/1
f 1731/1/1 1730/2/1 1729/3/1 1732/4/1
f 1735/1/1 1734/2/1 1733/3/1 1736/4/1
f 1739/1/1 1738/2/1 1737/3/1 1740/4/1
f 1743/1/1 1742/2/1 1741/3/1 1744/4/1
f 1747/1/1 1746/2/1 1745/3/1 1748/4/1
f 1751/1/1 1750/2/1 1749/3/1 1752/4/1
f 1755/1/1 1754/2/1 1753/3/1 1756/4/1
f 1759/1/1 1758/2/1 1757/3/1 1760/4/1
f 1763/1/1 1762/2/1 1761/3/1 1764/4/1
f 1767/1/1 1766/2/1 1765/3/1 1768/4/1
f 1771/1/1 1770/2/1 1769/3/1 1772/4/1
f 1775/1/1 1774/2/1 1773/3/1 1776/4/1
f 1779/1/1 1778/2/1 1777/3/1 1780/4/1
f 1783/1/1 1782/2/1 1781/3/1 1784/4/1
f 1787/1/1 1786/2/1 1785/3/1 1788/4/1
f 1791/1/1 1790/2/1 1789/3/1 1792/4/1
f 1795/1/1 1794/2/1 1793/3/1 1796/4/1
f 1799/1/1 1798/2/1 1797/3/1 1800/4/1
f 1803/1/1 1802/2/1 1801/3/1 1804/4/1
f 1807/1/1 1806/2/1 1805/3/1 1808/4/1
f 1811/1/1 1810/2/1 1809/3/1 1812/4/1
f 1815/1/1 1814/2/1 1813/3/1 1816/4/1
f 1819/1/1 1818/2/1 1817/3/1 1820/4/1
f 1823/1/1 1822/2/1 1821/3/1 1824/4/1
f 1825/5/1 1827/6/1 1828/7/1 1826/8/1
